<svg aria-hidden="true" style="position: absolute; width: 0; height: 0; overflow: hidden;" version="1.1" xmlns="http://www.w3.org/2000/svg" xmlns:xlink="http://www.w3.org/1999/xlink">
<defs>
<symbol id="icon-instagram" viewBox="0 0 32 32">
<path d="M28.718 10.756c-0.016-1.074-0.215-2.14-0.596-3.145-0.667-1.716-2.024-3.073-3.743-3.737-0.994-0.373-2.044-0.573-3.108-0.596-1.368-0.061-1.801-0.078-5.273-0.078s-3.916 0-5.274 0.078c-1.062 0.023-2.112 0.223-3.106 0.596-1.719 0.664-3.078 2.021-3.743 3.737-0.374 0.992-0.576 2.041-0.596 3.101-0.061 1.367-0.080 1.8-0.080 5.265s0 3.909 0.080 5.265c0.021 1.062 0.222 2.109 0.596 3.104 0.667 1.715 2.024 3.071 3.744 3.736 0.989 0.386 2.040 0.604 3.106 0.639 1.369 0.061 1.803 0.080 5.274 0.080s3.916 0 5.274-0.080c1.062-0.021 2.112-0.221 3.108-0.595 1.719-0.666 3.076-2.022 3.743-3.737 0.374-0.994 0.574-2.041 0.596-3.104 0.061-1.365 0.080-1.798 0.080-5.265-0.003-3.466-0.003-3.906-0.082-5.264zM15.99 22.531c-3.631 0-6.572-2.936-6.572-6.561s2.941-6.561 6.572-6.561c3.628 0 6.572 2.936 6.572 6.561s-2.944 6.561-6.572 6.561zM22.824 10.696c-0.849 0-1.532-0.684-1.532-1.53s0.684-1.53 1.532-1.53c0.846 0 1.531 0.684 1.531 1.53s-0.685 1.53-1.531 1.53z"></path>
<path d="M15.992 19.976c2.211 0 4.004-1.793 4.004-4.004s-1.793-4.004-4.004-4.004-4.004 1.793-4.004 4.004c0 2.211 1.793 4.004 4.004 4.004z"></path>
</symbol>
<symbol id="icon-camera" viewBox="0 0 33 32">
<path d="M16.667 23.333c1.667 0 3.084-0.583 4.251-1.749s1.749-2.584 1.749-4.251-0.583-3.084-1.749-4.251c-1.167-1.166-2.584-1.749-4.251-1.749s-3.084 0.583-4.251 1.749c-1.166 1.167-1.749 2.584-1.749 4.251s0.583 3.084 1.749 4.251c1.167 1.166 2.584 1.749 4.251 1.749zM6 28c-0.733 0-1.361-0.261-1.883-0.783s-0.784-1.151-0.784-1.884v-16c0-0.733 0.261-1.361 0.784-1.883s1.149-0.784 1.883-0.784h4.2l2.467-2.667h8l2.467 2.667h4.2c0.733 0 1.361 0.261 1.884 0.784s0.783 1.149 0.783 1.883v16c0 0.733-0.261 1.361-0.783 1.884s-1.151 0.783-1.884 0.783h-21.333z"></path>
</symbol>
<symbol id="icon-align-justify" viewBox="0 0 32 32">
<path fill="none" stroke-linejoin="round" stroke-linecap="round" stroke-miterlimit="4" stroke-width="2.2857" d="M28 13.333h-24"></path>
<path fill="none" stroke-linejoin="round" stroke-linecap="round" stroke-miterlimit="4" stroke-width="2.2857" d="M28 8h-24"></path>
<path fill="none" stroke-linejoin="round" stroke-linecap="round" stroke-miterlimit="4" stroke-width="2.2857" d="M28 18.667h-24"></path>
<path fill="none" stroke-linejoin="round" stroke-linecap="round" stroke-miterlimit="4" stroke-width="2.2857" d="M28 24h-24"></path>
</symbol>
<symbol id="icon-arrow-left" viewBox="0 0 32 32">
<path stroke-linejoin="round" stroke-linecap="round" stroke-miterlimit="4" stroke-width="2.6667" d="M25.428 16.001l-18.856-0.002"></path>
<path stroke-linejoin="round" stroke-linecap="round" stroke-miterlimit="4" stroke-width="2.6667" d="M15.999 25.428l-9.427-9.429 9.429-9.427"></path>
</symbol>
<symbol id="icon-x" viewBox="0 0 32 32">
<path stroke-linejoin="round" stroke-linecap="round" stroke-miterlimit="4" stroke-width="3" d="M24 8l-16 16"></path>
<path stroke-linejoin="round" stroke-linecap="round" stroke-miterlimit="4" stroke-width="3" d="M8 8l16 16"></path>
</symbol>
<symbol id="icon-minus" viewBox="0 0 32 32">
<path stroke-linejoin="round" stroke-linecap="round" stroke-miterlimit="4" stroke-width="2" d="M6.667 16h18.667"></path>
</symbol>
<symbol id="icon-plus" viewBox="0 0 32 32">
<path stroke-linejoin="round" stroke-linecap="round" stroke-miterlimit="4" stroke-width="2.6182" d="M16 6.667v18.667"></path>
<path stroke-linejoin="round" stroke-linecap="round" stroke-miterlimit="4" stroke-width="2.6182" d="M6.666 16h18.667"></path>
</symbol>
<symbol id="icon-frame" viewBox="0 0 33 32">
<path fill="none" stroke-linejoin="round" stroke-linecap="round" stroke-miterlimit="4" stroke-width="0.5" d="M28.441 11.429v-4.581c0-0.807-0.32-1.58-0.889-2.152s-1.342-0.893-2.149-0.896l-4.581-0.014M28.441 20.571v4.571c0 0.808-0.321 1.583-0.893 2.155s-1.347 0.893-2.155 0.893h-4.571M11.679 3.787l-4.581 0.015c-0.807 0.002-1.58 0.325-2.149 0.896s-0.889 1.345-0.889 2.152v4.579M11.679 28.19h-4.571c-0.808 0-1.583-0.321-2.155-0.893s-0.893-1.347-0.893-2.155v-4.571"></path>
</symbol>
<symbol id="icon-quote" viewBox="0 0 39 32">
<path d="M0 32v-10.706c0-4 0.704-7.686 2.113-11.059s3.796-6.784 7.162-10.235l6.105 4.824c-1.957 1.961-3.444 3.804-4.462 5.529s-1.683 3.49-1.996 5.294h7.514v16.353h-16.438zM22.896 32v-10.706c0-4 0.704-7.686 2.113-11.059s3.796-6.784 7.162-10.235l6.105 4.824c-1.957 1.961-3.444 3.804-4.462 5.529s-1.683 3.49-1.996 5.294h7.514v16.353h-16.438z"></path>
</symbol>
<symbol id="icon-chevron-down" viewBox="0 0 32 32">
<path stroke-linejoin="round" stroke-linecap="round" stroke-miterlimit="4" stroke-width="3.2" d="M8 12l8 8 8-8"></path>
</symbol>
<symbol id="icon-facebook" viewBox="0 0 32 32">
<path d="M19.52 4.64c0.24 0 0.48 0 0.96 0v3.6c-0.24 0-0.72 0-1.2 0s-0.96 0-1.2 0.24c-0.24 0.24-0.24 0.48-0.24 1.040 0 0.48 0 0.8 0 1.28h2.64v3.040h-2.64v13.2h-4.080v-13.28h-2.16v-3.040h2.16v-1.040c0-1.76 0.24-3.040 0.72-3.6 0.72-1.040 2.16-1.52 4.32-1.52 0.24 0.080 0.48 0.080 0.72 0.080z"></path>
</symbol>
<symbol id="icon-youtube" viewBox="0 0 32 32">
<path d="M30.112 9.356c0 0-0.288-2.080-1.152-2.971-1.056-1.189-2.304-1.189-2.88-1.288-4.032-0.297-10.080-0.297-10.080-0.297s-6.048 0-10.080 0.297c-0.576 0.099-1.824 0.099-2.88 1.288-0.864 0.891-1.152 2.971-1.152 2.971s-0.288 2.377-0.288 4.754v2.179c0 2.377 0.288 4.853 0.288 4.853s0.288 2.080 1.152 2.971c1.056 1.189 2.496 1.189 3.168 1.288 2.304 0.099 9.792 0.198 9.792 0.198s6.048 0 10.080-0.297c0.576-0.099 1.824-0.099 2.88-1.288 0.864-0.891 1.152-2.971 1.152-2.971s0.288-2.377 0.288-4.754v-2.179c0-2.377-0.288-4.754-0.288-4.754zM13.024 19.063v-8.32l7.776 4.16-7.776 4.16z"></path>
</symbol>
<symbol id="icon-check" viewBox="0 0 39 32">
<path stroke-linejoin="miter" stroke-linecap="butt" stroke-miterlimit="4" stroke-width="7.1471" d="M3.556 17.778l10.667 7.111 19.556-21.333"></path>
</symbol>
<symbol id="icon-trash" viewBox="0 0 32 32">
<path stroke-linejoin="round" stroke-linecap="round" stroke-miterlimit="4" stroke-width="2.6667" d="M12 4h8"></path>
<path stroke-linejoin="round" stroke-linecap="round" stroke-miterlimit="4" stroke-width="2.6667" d="M4 8h24M25.333 8l-0.935 14.026c-0.14 2.104-0.21 3.156-0.665 3.954-0.4 0.702-1.004 1.267-1.731 1.62-0.826 0.4-1.881 0.4-3.99 0.4h-4.025c-2.109 0-3.163 0-3.99-0.4-0.727-0.353-1.331-0.917-1.731-1.62-0.455-0.798-0.525-1.85-0.665-3.954l-0.935-14.026"></path>
</symbol>
<symbol id="icon-arrow-up-right" viewBox="0 0 32 32">
<path stroke-linejoin="round" stroke-linecap="round" stroke-miterlimit="4" stroke-width="2.6667" d="M9.333 22.667l13.333-13.333" ></path>
<path stroke-linejoin="round" stroke-linecap="round" stroke-miterlimit="4" stroke-width="2.6667" d="M9.333 9.333h13.333v13.333"></path>
</symbol>

<symbol id="icon-heart" viewBox="0 0 32 32">
<path stroke-linejoin="round" stroke-linecap="round" stroke-miterlimit="4" stroke-width="2.6667" d="M27.786 6.146c-0.681-0.681-1.49-1.222-2.38-1.591s-1.844-0.559-2.807-0.559c-0.963 0-1.917 0.19-2.807 0.559s-1.698 0.909-2.38 1.591l-1.413 1.413-1.413-1.413c-1.376-1.376-3.241-2.148-5.187-2.148s-3.811 0.773-5.187 2.148c-1.376 1.376-2.148 3.241-2.148 5.187s0.773 3.811 2.148 5.187l11.787 11.787 11.787-11.787c0.681-0.681 1.222-1.49 1.591-2.38s0.559-1.844 0.559-2.807c0-0.963-0.19-1.917-0.559-2.807s-0.909-1.699-1.591-2.38z"></path>
</symbol>
<symbol id="icon-eye-off" viewBox="0 0 32 32">
<path d="M8.109 20.891c-3.492-2.061-5.109-4.891-5.109-4.891s4-7 13-7c1.305 0 2.504 0.147 3.601 0.399l-0.85 0.85c-0.855-0.158-1.772-0.248-2.752-0.248-8 0-11.8 6-11.8 6s1.515 2.392 4.645 4.155l-0.736 0.736zM12.399 22.601c1.097 0.252 2.297 0.399 3.601 0.399 9 0 13-7 13-7s-1.617-2.83-5.109-4.891l-0.736 0.736c3.13 1.763 4.645 4.155 4.645 4.155s-3.8 6-11.8 6c-0.98 0-1.897-0.090-2.752-0.248l-0.85 0.85zM19.899 15.101c0.066 0.289 0.101 0.59 0.101 0.899 0 2.209-1.791 4-4 4-0.309 0-0.61-0.035-0.899-0.101l0.899-0.899c0.768 0 1.536-0.293 2.121-0.879s0.879-1.354 0.879-2.121l0.899-0.899zM16.899 12.101c-0.289-0.066-0.59-0.101-0.899-0.101-2.209 0-4 1.791-4 4 0 0.309 0.035 0.61 0.101 0.899l0.899-0.899c0-0.768 0.293-1.536 0.879-2.121s1.354-0.879 2.121-0.879l0.899-0.899zM24 7l-17 17 1 1 17-17-1-1z"></path>
</symbol>
<symbol id="icon-eye-on" viewBox="0 0 32 32">
<path d="M16 9v0 0c9 0 13 7 13 7s-4 7-13 7c-9 0-13-7-13-7s4-7 13-7zM16 10c-8 0-11.8 6-11.8 6s3.8 6 11.8 6c8 0 11.8-6 11.8-6s-3.8-6-11.8-6v0 0zM16 20v0 0c-2.209 0-4-1.791-4-4s1.791-4 4-4c2.209 0 4 1.791 4 4s-1.791 4-4 4zM16 19c1.657 0 3-1.343 3-3s-1.343-3-3-3c-1.657 0-3 1.343-3 3s1.343 3 3 3v0 0zM16 17c0.552 0 1-0.448 1-1s-0.448-1-1-1c-0.552 0-1 0.448-1 1s0.448 1 1 1v0 0z"></path>
</symbol>
<symbol id="icon-quotes" viewBox="0 0 40 32">
<path d="M0 32V21.294c0-4 .716-7.686 2.149-11.059S6.01 3.451 9.433 0l6.209 4.824c-1.99 1.961-3.502 3.804-4.537 5.529s-1.711 3.49-2.03 5.294h7.642V32H.001zm23.284 0V21.294c0-4 .716-7.686 2.149-11.059S29.294 3.451 32.717 0l6.209 4.824c-1.99 1.961-3.502 3.804-4.537 5.529s-1.712 3.49-2.03 5.294h7.642V32H23.285z"/>
</symbol>
<symbol id="icon-link-icon" viewBox="0 0 32 32">
<path fill="none" stroke-linejoin="round" stroke-linecap="round" stroke-miterlimit="4" stroke-width="2.3111" d="M9.333 22.667l13.333-13.333"></path>
<path fill="none" stroke-linejoin="round" stroke-linecap="round" stroke-miterlimit="4" stroke-width="2.3111" d="M9.333 9.333h13.333v13.333"></path>
</symbol>
<symbol id="icon-framed-camera" viewBox="0 0 33 32">
<path fill="none" stroke="#bfbebe" style="stroke: var(--color2, #bfbebe)" stroke-linejoin="round" stroke-linecap="round" stroke-miterlimit="4" stroke-width="0.5" d="M28.441 11.429v-4.581c0-0.807-0.32-1.58-0.889-2.152s-1.342-0.893-2.149-0.896l-4.581-0.014M28.441 20.571v4.571c0 0.808-0.321 1.583-0.893 2.155s-1.347 0.893-2.155 0.893h-4.571M11.679 3.787l-4.581 0.015c-0.807 0.002-1.58 0.325-2.149 0.896s-0.889 1.345-0.889 2.152v4.579M11.679 28.19h-4.571c-0.808 0-1.583-0.321-2.155-0.893s-0.893-1.347-0.893-2.155v-4.571"></path>
<path fill="#bfbebe" style="fill: var(--color2, #bfbebe)" d="M16.25 18.75c0.625 0 1.156-0.219 1.594-0.656s0.656-0.969 0.656-1.594-0.219-1.156-0.656-1.594c-0.438-0.437-0.969-0.656-1.594-0.656s-1.156 0.219-1.594 0.656c-0.437 0.438-0.656 0.969-0.656 1.594s0.219 1.156 0.656 1.594c0.438 0.437 0.969 0.656 1.594 0.656zM12.25 20.5c-0.275 0-0.51-0.098-0.706-0.294s-0.294-0.431-0.294-0.706v-6c0-0.275 0.098-0.51 0.294-0.706s0.431-0.294 0.706-0.294h1.575l0.925-1h3l0.925 1h1.575c0.275 0 0.511 0.098 0.706 0.294s0.294 0.431 0.294 0.706v6c0 0.275-0.098 0.511-0.294 0.706s-0.431 0.294-0.706 0.294h-8z"></path>
</symbol>
<symbol id="icon-comment" viewBox="0 0 32 32">
<path d="M26.668 2.668h-21.336c-1.469 0.005-2.659 1.195-2.664 2.664v16c0 1.469 1.2 2.668 2.664 2.668h5.336v4c0 0.8 0.531 1.332 1.332 1.332h0.668c0.266 0 0.664-0.133 0.934-0.398l4.933-4.934h8.133c1.465 0 2.664-1.2 2.664-2.668v-16c0-1.465-1.2-2.664-2.664-2.664zM26.668 21.332h-9.203l-4.133 4.133v-4.133h-8v-16h21.336v16zM10.668 12v2.668h6l-2.402 2.398 1.734 1.602 5.332-5.336-5.332-5.332-1.602 1.602 2.27 2.398z"></path>
</symbol>
</defs>
</svg>
