<svg xmlns="http://www.w3.org/2000/svg" aria-hidden="true" style="position: absolute; width: 0; height: 0; overflow: hidden;">
  <defs>
    <!-- Logo -->
    <symbol id="icon-logo" viewBox="0 0 136 16">
      <path d="M10.32 0.32h-3.36v15.36h3.36v-15.36zM18.72 15.68c0.96 0 1.76-0.32 2.48-0.96s1.12-1.44 1.2-2.4h-3.2c0 0.32-0.16 0.64-0.32 0.8s-0.48 0.32-0.8 0.32c-0.48 0-0.8-0.16-1.12-0.48s-0.48-0.8-0.48-1.44v-3.04c0-0.64 0.16-1.12 0.48-1.44s0.64-0.48 1.12-0.48c0.32 0 0.64 0.16 0.8 0.32s0.32 0.48 0.32 0.8h3.2c-0.08-0.96-0.48-1.76-1.2-2.4s-1.52-0.96-2.48-0.96c-0.64 0-1.28 0.16-1.76 0.48s-0.96 0.64-1.44 1.12c-0.32 0.48-0.64 1.12-0.8 1.76s-0.32 1.28-0.32 2.08c0 0.64 0.16 1.44 0.32 2.08s0.48 1.28 0.8 1.76c0.48 0.48 0.96 0.8 1.44 1.12s1.12 0.48 1.76 0.48z"/>
      <path d="M26.96 6.72c-0.32 0.48-0.48 0.96-0.48 1.6v7.36h-3.2v-10.72h3.04v1.28h0.16c0.32-0.48 0.64-0.8 1.12-1.12s0.96-0.48 1.6-0.48h0.8v3.2h-1.28c-0.64 0-1.28 0.32-1.76 0.88z"/>
      <path d="M39.68 5.12h3.04v10.56h-3.04v-0.96c-0.48 0.8-1.44 1.12-2.72 1.12-0.48 0-0.96-0.16-1.44-0.32s-0.96-0.48-1.28-0.8c-0.48-0.32-0.8-0.8-0.96-1.28s-0.32-1.12-0.32-1.76v-6.56h3.2v5.92c0 0.64 0.16 1.12 0.48 1.44s0.8 0.48 1.28 0.48c0.64 0 1.12-0.16 1.44-0.64s0.48-0.96 0.48-1.6v-5.6h-0.16z"/>
      <path d="M44.48 4.96h3.2v10.72h-3.2v-10.72zM44.48 0.32h3.2v2.88h-3.2v-2.88z"/>
      <path d="M55.04 15.68c0.48 0 0.96 0 1.44-0.16s0.8-0.32 1.28-0.64c0.32-0.32 0.64-0.64 0.96-1.12s0.48-1.12 0.48-1.76h-3.04c0 0.48-0.16 0.8-0.48 1.12s-0.64 0.48-1.12 0.48c-0.32 0-0.48-0.16-0.8-0.32s-0.32-0.48-0.32-0.8h5.92c0.16-0.48 0.16-0.96 0.16-1.44 0-0.8-0.16-1.44-0.32-2.08s-0.48-1.28-0.96-1.76c-0.48-0.48-0.96-0.96-1.6-1.28s-1.28-0.48-2.08-0.48c-0.64 0-1.28 0.16-1.92 0.48s-1.12 0.64-1.6 1.12c-0.48 0.48-0.8 1.12-1.12 1.76s-0.48 1.44-0.48 2.24c0 0.64 0.16 1.44 0.48 2.08s0.64 1.28 1.12 1.76c0.48 0.48 0.96 0.96 1.6 1.28s1.28 0.48 1.92 0.48zM52.96 9.12c0-0.32 0.16-0.64 0.32-0.96s0.48-0.48 0.96-0.48c0.32 0 0.64 0.16 0.96 0.48s0.32 0.64 0.32 0.96h-2.56z"/>
      <path d="M66.24 9.44c-0.96-0.32-1.76-0.48-2.24-0.64s-0.8-0.48-0.8-0.8c0-0.16 0.16-0.32 0.32-0.48s0.32-0.16 0.64-0.16c0.48 0 0.8 0.16 0.96 0.32s0.32 0.48 0.32 0.8h3.04c0-0.96-0.32-1.76-1.12-2.4s-1.76-0.8-2.88-0.8c-1.28 0-2.24 0.32-2.88 0.8s-0.96 1.28-0.96 2.24c0 1.12 0.32 1.92 1.12 2.4s1.76 0.8 2.72 1.12c0.48 0.16 0.96 0.16 1.28 0.32s0.48 0.32 0.48 0.64c0 0.16-0.16 0.48-0.32 0.64s-0.48 0.16-0.8 0.16c-0.48 0-0.8-0.16-1.12-0.32s-0.32-0.48-0.32-0.96h-3.04c0 0.48 0.16 0.96 0.32 1.44s0.48 0.8 0.96 1.12c0.48 0.32 0.96 0.64 1.44 0.8s1.12 0.16 1.76 0.16c0.64 0 1.28 0 1.76-0.16s0.96-0.32 1.44-0.64c0.32-0.32 0.64-0.64 0.8-1.12s0.32-0.96 0.32-1.44c0-0.64-0.16-1.12-0.32-1.6s-0.48-0.8-0.96-1.12c-0.48-0.32-0.96-0.48-1.44-0.64z"/>
      <path d="M84.32 0.32h-10.4v3.04h3.52v12.48h3.36v-12.48h3.52v-3.04z"/>
      <path d="M91.04 6.72c-0.32 0.48-0.48 0.96-0.48 1.6v7.36h-3.2v-10.72h3.04v1.28h0.16c0.32-0.48 0.64-0.8 1.12-1.12s0.96-0.48 1.6-0.48h0.8v3.2h-1.28c-0.64 0-1.28 0.32-1.76 0.88z"/>
      <path d="M103.68 5.12h3.04v10.56h-3.04v-0.96c-0.48 0.8-1.44 1.12-2.72 1.12-0.48 0-0.96-0.16-1.44-0.32s-0.96-0.48-1.28-0.8c-0.48-0.32-0.8-0.8-0.96-1.28s-0.32-1.12-0.32-1.76v-6.56h3.2v5.92c0 0.64 0.16 1.12 0.48 1.44s0.8 0.48 1.28 0.48c0.64 0 1.12-0.16 1.44-0.64s0.48-0.96 0.48-1.6v-5.6h-0.16z"/>
      <path d="M114.88 15.68c0.96 0 1.76-0.32 2.48-0.96s1.12-1.44 1.2-2.4h-3.2c0 0.32-0.16 0.64-0.32 0.8s-0.48 0.32-0.8 0.32c-0.48 0-0.8-0.16-1.12-0.48s-0.48-0.8-0.48-1.44v-3.04c0-0.64 0.16-1.12 0.48-1.44s0.64-0.48 1.12-0.48c0.32 0 0.64 0.16 0.8 0.32s0.32 0.48 0.32 0.8h3.2c-0.08-0.96-0.48-1.76-1.2-2.4s-1.52-0.96-2.48-0.96c-0.64 0-1.28 0.16-1.76 0.48s-0.96 0.64-1.44 1.12c-0.32 0.48-0.64 1.12-0.8 1.76s-0.32 1.28-0.32 2.08c0 0.64 0.16 1.44 0.32 2.08s0.48 1.28 0.8 1.76c0.48 0.48 0.96 0.8 1.44 1.12s1.12 0.48 1.76 0.48z"/>
      <path d="M123.36 10.4l-0.96 0.96v4.32h-3.2v-15.36h3.2v7.52l3.52-3.04h3.84l-4.16 3.68 4.32 6.88h-3.84l-2.72-4.48v-0.48z"/>
      <path d="M135.04 15.68c0.48 0 0.96 0 1.44-0.16s0.8-0.32 1.28-0.64c0.32-0.32 0.64-0.64 0.96-1.12s0.48-1.12 0.48-1.76h-3.04c0 0.48-0.16 0.8-0.48 1.12s-0.64 0.48-1.12 0.48c-0.32 0-0.48-0.16-0.8-0.32s-0.32-0.48-0.32-0.8h5.92c0.16-0.48 0.16-0.96 0.16-1.44 0-0.8-0.16-1.44-0.32-2.08s-0.48-1.28-0.96-1.76c-0.48-0.48-0.96-0.96-1.6-1.28s-1.28-0.48-2.08-0.48c-0.64 0-1.28 0.16-1.92 0.48s-1.12 0.64-1.6 1.12c-0.48 0.48-0.8 1.12-1.12 1.76s-0.48 1.44-0.48 2.24c0 0.64 0.16 1.44 0.48 2.08s0.64 1.28 1.12 1.76c0.48 0.48 0.96 0.96 1.6 1.28s1.28 0.48 1.92 0.48zM132.96 9.12c0-0.32 0.16-0.64 0.32-0.96s0.48-0.48 0.96-0.48c0.32 0 0.64 0.16 0.96 0.48s0.32 0.64 0.32 0.96h-2.56z"/>
    </symbol>

    <!-- Heart -->
    <symbol id="icon-heart" viewBox="0 0 26 24">
      <path stroke-linejoin="round" stroke-linecap="round" stroke-width="2.3" d="M22.577 4.474c-2.361-2.632-6.396-2.822-8.99-0.424l-0.545 0.505-0.545-0.505c-2.598-2.398-6.634-2.207-8.99 0.424s-2.176 6.925 0.424 9.321l7.669 7.091c0.785 0.721 2.004 0.721 2.789 0l7.669-7.091c2.596-2.396 2.776-6.689 0.42-9.321z"/>
    </symbol>

    <!-- Heart Filled -->
    <symbol id="icon-heart-filled" viewBox="0 0 26 24">
      <path fill="#E44848" d="M22.577 4.474c-2.361-2.632-6.396-2.822-8.99-0.424l-0.545 0.505-0.545-0.505c-2.598-2.398-6.634-2.207-8.99 0.424s-2.176 6.925 0.424 9.321l7.669 7.091c0.785 0.721 2.004 0.721 2.789 0l7.669-7.091c2.596-2.396 2.776-6.689 0.42-9.321z"/>
    </symbol>

    <!-- Star -->
    <symbol id="icon-star" viewBox="0 0 16 16">
      <path fill="#FFC531" d="M7.549 0.928c0.178-0.571 0.982-0.571 1.16 0l1.458 4.49c0.079 0.243 0.305 0.407 0.564 0.407h4.714c0.58 0 0.821 0.742 0.354 1.084l-3.814 2.77c-0.207 0.15-0.293 0.417-0.214 0.66l1.458 4.49c0.178 0.571-0.452 1.045-0.914 0.688l-3.814-2.77c-0.207-0.15-0.487-0.15-0.694 0l-3.814 2.77c-0.462 0.357-1.092-0.117-0.914-0.688l1.458-4.49c0.079-0.243-0.007-0.51-0.214-0.66l-3.814-2.77c-0.467-0.342-0.226-1.084 0.354-1.084h4.714c0.259 0 0.485-0.164 0.564-0.407l1.458-4.49z"/>
    </symbol>

    <!-- Star Empty -->
    <symbol id="icon-star-empty" viewBox="0 0 16 16">
      <path stroke="#FFC531" stroke-width="1.3" fill="none" d="M7.549 0.928c0.178-0.571 0.982-0.571 1.16 0l1.458 4.49c0.079 0.243 0.305 0.407 0.564 0.407h4.714c0.58 0 0.821 0.742 0.354 1.084l-3.814 2.77c-0.207 0.15-0.293 0.417-0.214 0.66l1.458 4.49c0.178 0.571-0.452 1.045-0.914 0.688l-3.814-2.77c-0.207-0.15-0.487-0.15-0.694 0l-3.814 2.77c-0.462 0.357-1.092-0.117-0.914-0.688l1.458-4.49c0.079-0.243-0.007-0.51-0.214-0.66l-3.814-2.77c-0.467-0.342-0.226-1.084 0.354-1.084h4.714c0.259 0 0.485-0.164 0.564-0.407l1.458-4.49z"/>
    </symbol>

    <!-- Location -->
    <symbol id="icon-location" viewBox="0 0 16 20">
      <path fill="none" stroke="currentColor" stroke-width="1.3" d="M14 8.5c0 3.872-4.128 8.941-5.52 10.537-0.267 0.307-0.4 0.46-0.607 0.52-0.182 0.053-0.388 0.053-0.57 0-0.206-0.061-0.34-0.213-0.607-0.52-1.392-1.596-5.52-6.666-5.52-10.537 0-3.728 3.313-6.75 7.4-6.75s7.4 3.022 7.4 6.75z"/>
      <ellipse stroke="currentColor" stroke-width="1.3" fill="none" cx="8" cy="8.5" rx="2.5" ry="2.5"/>
    </symbol>

    <!-- Close -->
    <symbol id="icon-close" viewBox="0 0 32 32">
      <path stroke-width="3" stroke-linecap="round" stroke-linejoin="round" d="M24 8l-16 16M8 8l16 16"/>
    </symbol>

    <!-- Calendar -->
    <symbol id="icon-calendar" viewBox="0 0 20 20">
      <path fill="none" stroke="currentColor" stroke-width="1.3" d="M15.833 3.333h1.667c0.736 0 1.104 0 1.365 0.147 0.23 0.129 0.418 0.317 0.547 0.547 0.147 0.261 0.147 0.629 0.147 1.365v11.217c0 0.736 0 1.104-0.147 1.365-0.129 0.23-0.317 0.418-0.547 0.547-0.261 0.147-0.629 0.147-1.365 0.147h-15c-0.736 0-1.104 0-1.365-0.147-0.23-0.129-0.418-0.317-0.547-0.547-0.147-0.261-0.147-0.629-0.147-1.365v-11.217c0-0.736 0-1.104 0.147-1.365 0.129-0.23 0.317-0.418 0.547-0.547 0.261-0.147 0.629-0.147 1.365-0.147h1.667M13.333 1.667v3.333M6.667 1.667v3.333M1.667 8.333h16.667"/>
    </symbol>

    <!-- AC -->
    <symbol id="icon-ac" viewBox="0 0 20 20">
      <path fill="none" stroke="currentColor" stroke-width="1.5" d="M2.623 16.666l2.851-2.851M17.5 10v0.009M13.182 13.182v0.009M6.818 13.182v0.009M10 3.333v0.009M6.818 6.818v0.009M13.182 6.818v0.009M10 16.666v0.009M2.5 10v0.009M14.526 17.376l2.851-2.851M17.376 5.474l-2.851 2.851M5.473 2.624l-2.851 2.851M8.587 11.414c0.781-0.781 2.048-0.781 2.828 0s0.781 2.048 0 2.828c-0.781 0.781-2.048 0.781-2.828 0s-0.781-2.048 0-2.828z"/>
    </symbol>

    <!-- Bathroom -->
    <symbol id="icon-bathroom" viewBox="0 0 20 20">
      <path fill="none" stroke="currentColor" stroke-width="1.5" d="M15.833 10.833h-11.667c0 0 0.417 6.667 5.833 6.667s5.833-6.667 5.833-6.667zM3.333 10.833c0-3.681 2.985-6.667 6.667-6.667s6.667 2.985 6.667 6.667M7.917 4.167v-1.667c0-0.92 0.746-1.667 1.667-1.667h0.833c0.92 0 1.667 0.746 1.667 1.667v1.667"/>
    </symbol>

    <!-- Kitchen -->
    <symbol id="icon-kitchen" viewBox="0 0 20 20">
      <path fill="none" stroke="currentColor" stroke-width="1.5" d="M3.333 13.333v3.333c0 0.467 0.373 0.833 0.833 0.833s0.833-0.367 0.833-0.833v-3.333M3.333 13.333v-10c0-0.467 0.373-0.833 0.833-0.833s0.833 0.367 0.833 0.833v4.167M3.333 13.333h1.667M5 7.5v-4.167c0-0.467 0.373-0.833 0.833-0.833s0.833 0.367 0.833 0.833v4.167M5 7.5v5.833M5 7.5h1.667M6.667 7.5v-4.167c0-0.467 0.373-0.833 0.833-0.833s0.833 0.367 0.833 0.833v10c0 0.467-0.373 0.833-0.833 0.833h-2.5M13.333 2.5v8.333l1.667 2.5v3.333c0 0.467-0.373 0.833-0.833 0.833s-0.833-0.367-0.833-0.833v-3.333l1.667-2.5"/>
    </symbol>

    <!-- TV -->
    <symbol id="icon-tv" viewBox="0 0 20 20">
      <path fill="none" stroke="currentColor" stroke-width="1.5" d="M16.667 14.167h-13.333c-0.46 0-0.833-0.373-0.833-0.833v-8.333c0-0.46 0.373-0.833 0.833-0.833h13.333c0.46 0 0.833 0.373 0.833 0.833v8.333c0 0.46-0.373 0.833-0.833 0.833zM6.667 17.5h6.667M10 14.167v3.333"/>
    </symbol>

    <!-- Radio -->
    <symbol id="icon-radio" viewBox="0 0 20 20">
      <path fill="none" stroke="currentColor" stroke-width="1.5" d="M2.5 8.333v7.5c0 0.46 0.373 0.833 0.833 0.833h13.333c0.46 0 0.833-0.373 0.833-0.833v-7.5c0-0.46-0.373-0.833-0.833-0.833h-10.609l6.053-4.035M12.917 11.667c0-0.69 0.56-1.25 1.25-1.25s1.25 0.56 1.25 1.25-0.56 1.25-1.25 1.25-1.25-0.56-1.25-1.25zM5.833 10.833h1.667M5.833 12.917h1.667"/>
    </symbol>

    <!-- Refrigerator -->
    <symbol id="icon-refrigerator" viewBox="0 0 20 20">
      <path fill="none" stroke="currentColor" stroke-width="1.5" d="M15 1.667h-10c-0.46 0-0.833 0.373-0.833 0.833v15c0 0.46 0.373 0.833 0.833 0.833h10c0.46 0 0.833-0.373 0.833-0.833v-15c0-0.46-0.373-0.833-0.833-0.833zM4.167 7.5h11.667M11.667 4.167h1.667M11.667 10.833h1.667"/>
    </symbol>

    <!-- Microwave -->
    <symbol id="icon-microwave" viewBox="0 0 20 20">
      <path fill="none" stroke="currentColor" stroke-width="1.5" d="M16.667 4.167h-13.333c-0.46 0-0.833 0.373-0.833 0.833v8.333c0 0.46 0.373 0.833 0.833 0.833h13.333c0.46 0 0.833-0.373 0.833-0.833v-8.333c0-0.46-0.373-0.833-0.833-0.833zM5 14.167v1.667M15 14.167v1.667M5 7.5h6.667v3.333h-6.667v-3.333zM14.167 7.5v0.008M14.167 10.833v0.008"/>
    </symbol>

    <!-- Gas -->
    <symbol id="icon-gas" viewBox="0 0 20 20">
      <path fill="none" stroke="currentColor" stroke-width="1.5" d="M12.5 17.5h-9.167v-12.5c0-0.46 0.373-0.833 0.833-0.833h7.5c0.46 0 0.833 0.373 0.833 0.833v7.5M12.5 17.5v-5c0-0.46 0.373-0.833 0.833-0.833h2.5c0.46 0 0.833 0.373 0.833 0.833v2.917c0 0.46-0.373 0.833-0.833 0.833h-0.833M12.5 17.5h4.167M16.667 16.667v0.833M12.5 9.167v-5.417c0-0.69 0.56-1.25 1.25-1.25v0c0.69 0 1.25 0.56 1.25 1.25v2.917l1.667 1.667M5.833 7.5h3.333"/>
    </symbol>

    <!-- Water -->
    <symbol id="icon-water" viewBox="0 0 20 20">
      <path fill="none" stroke="currentColor" stroke-width="1.5" d="M10 17.5c2.761 0 5-2.686 5-6s-5-9.167-5-9.167-5 5.864-5 9.167 2.239 6 5 6z"/>
    </symbol>

    <!-- Transmission -->
    <symbol id="icon-transmission" viewBox="0 0 20 20">
      <path fill="none" stroke="currentColor" stroke-width="1.5" d="M10 5v3.333M10 8.333c1.841 0 3.333 1.492 3.333 3.333s-1.492 3.333-3.333 3.333-3.333-1.492-3.333-3.333 1.492-3.333 3.333-3.333zM3.333 5h3.333M13.333 5h3.333"/>
    </symbol>

    <!-- Engine -->
    <symbol id="icon-engine" viewBox="0 0 20 20">
      <path fill="none" stroke="currentColor" stroke-width="1.5" d="M4.167 10.833v-3.333h1.667v-2.5h2.5v2.5h5v-2.5h2.5v2.5h1.667v3.333M4.167 10.833v3.333h1.667v2.5h8.333v-2.5h1.667v-3.333M4.167 10.833h11.667"/>
    </symbol>

    <!-- Van -->
    <symbol id="icon-van" viewBox="0 0 20 20">
      <path fill="none" stroke="currentColor" stroke-width="1.5" d="M7.5 15.833c0 0.69-0.56 1.25-1.25 1.25s-1.25-0.56-1.25-1.25c0-0.69 0.56-1.25 1.25-1.25s1.25 0.56 1.25 1.25zM15 15.833c0 0.69-0.56 1.25-1.25 1.25s-1.25-0.56-1.25-1.25c0-0.69 0.56-1.25 1.25-1.25s1.25 0.56 1.25 1.25z"/>
      <path fill="none" stroke="currentColor" stroke-width="1.5" d="M5 15.833h-1.667v-7.5l2.5-5h8.333v12.5h-1.667M7.5 15.833h5"/>
      <path fill="none" stroke="currentColor" stroke-width="1.5" d="M14.167 8.333h3.75l1.25 2.5v5h-4.167"/>
      <path fill="none" stroke="currentColor" stroke-width="1.5" d="M3.333 11.667h7.5"/>
    </symbol>

    <!-- Fully Integrated -->
    <symbol id="icon-fully-integrated" viewBox="0 0 20 20">
      <path fill="none" stroke="currentColor" stroke-width="1.5" d="M7.5 15.833c0 0.69-0.56 1.25-1.25 1.25s-1.25-0.56-1.25-1.25c0-0.69 0.56-1.25 1.25-1.25s1.25 0.56 1.25 1.25zM15 15.833c0 0.69-0.56 1.25-1.25 1.25s-1.25-0.56-1.25-1.25c0-0.69 0.56-1.25 1.25-1.25s1.25 0.56 1.25 1.25z"/>
      <path fill="none" stroke="currentColor" stroke-width="1.5" d="M5 15.833h-1.667c-0.46 0-0.833-0.373-0.833-0.833v-8.333c0-0.46 0.373-0.833 0.833-0.833h10c0.46 0 0.833 0.373 0.833 0.833v9.167h-1.667M7.5 15.833h5"/>
      <path fill="none" stroke="currentColor" stroke-width="1.5" d="M14.167 10h3.333c0.46 0 0.833 0.373 0.833 0.833v4.167h-3.333"/>
      <path fill="none" stroke="currentColor" stroke-width="1.5" d="M2.5 10h12.5"/>
    </symbol>

    <!-- Alcove -->
    <symbol id="icon-alcove" viewBox="0 0 20 20">
      <path fill="none" stroke="currentColor" stroke-width="1.5" d="M7.5 15.833c0 0.69-0.56 1.25-1.25 1.25s-1.25-0.56-1.25-1.25c0-0.69 0.56-1.25 1.25-1.25s1.25 0.56 1.25 1.25zM15 15.833c0 0.69-0.56 1.25-1.25 1.25s-1.25-0.56-1.25-1.25c0-0.69 0.56-1.25 1.25-1.25s1.25 0.56 1.25 1.25z"/>
      <path fill="none" stroke="currentColor" stroke-width="1.5" d="M5 15.833h-1.667v-10h10.833v10h-1.667M7.5 15.833h5"/>
      <path fill="none" stroke="currentColor" stroke-width="1.5" d="M14.167 10h3.333v5h-3.333"/>
      <path fill="none" stroke="currentColor" stroke-width="1.5" d="M14.167 5.833v-2.5h-10.833v2.5"/>
      <path fill="none" stroke="currentColor" stroke-width="1.5" d="M7.5 10h5"/>
    </symbol>

    <!-- Filter -->
    <symbol id="icon-filter" viewBox="0 0 20 20">
      <path fill="none" stroke="currentColor" stroke-width="1.5" d="M8.125 15.625l-4.375-4.375v-7.5h12.5v7.5l-4.375 4.375v4.375l-3.75-1.875v-2.5z"/>
    </symbol>

    <!-- Users -->
    <symbol id="icon-users" viewBox="0 0 20 20">
      <path fill="none" stroke="currentColor" stroke-width="1.5" d="M14.167 17.5v-1.667c0-1.841-1.492-3.333-3.333-3.333h-5.833c-1.841 0-3.333 1.492-3.333 3.333v1.667M10.833 5.833c0 1.841-1.492 3.333-3.333 3.333s-3.333-1.492-3.333-3.333c0-1.841 1.492-3.333 3.333-3.333s3.333 1.492 3.333 3.333zM18.333 17.5v-1.667c0-1.473-0.953-2.722-2.275-3.166M13.558 2.608c1.035 0.537 1.742 1.623 1.742 2.867s-0.707 2.33-1.742 2.867"/>
    </symbol>

    <!-- Checkbox -->
    <symbol id="icon-checkbox" viewBox="0 0 16 16">
      <rect width="16" height="16" rx="2" fill="#E44848"/>
      <path fill="white" d="M13.354 4.646c0.195 0.195 0.195 0.512 0 0.707l-6 6c-0.195 0.195-0.512 0.195-0.707 0l-3-3c-0.195-0.195-0.195-0.512 0-0.707s0.512-0.195 0.707 0l2.646 2.647 5.646-5.647c0.195-0.195 0.512-0.195 0.707 0z"/>
    </symbol>

    <!-- Arrow Down -->
    <symbol id="icon-arrow-down" viewBox="0 0 20 20">
      <path fill="none" stroke="currentColor" stroke-width="2" stroke-linecap="round" stroke-linejoin="round" d="M5 7.5l5 5 5-5"/>
    </symbol>

    <!-- Search -->
    <symbol id="icon-search" viewBox="0 0 20 20">
      <path fill="none" stroke="currentColor" stroke-width="1.5" stroke-linecap="round" stroke-linejoin="round" d="M9.167 15.833c3.682 0 6.667-2.985 6.667-6.667s-2.985-6.667-6.667-6.667c-3.682 0-6.667 2.985-6.667 6.667s2.985 6.667 6.667 6.667zM17.5 17.5l-3.625-3.625"/>
    </symbol>
  </defs>
</svg>