<svg xmlns="http://www.w3.org/2000/svg" aria-hidden="true" style="position: absolute; width: 0; height: 0; overflow: hidden;">
  <defs>
    <!-- Logo -->
<symbol id="icon-logo" viewBox="0 0 290 32">
<path fill="#475467" style="fill: var(--color1, #475467)" d="M288.838 15.333h-7.697c-0.041-0.475-0.207-0.884-0.501-1.227-0.292-0.343-0.672-0.606-1.135-0.788-0.457-0.192-0.96-0.288-1.517-0.288-0.717 0-1.333 0.131-1.847 0.394-0.516 0.263-0.768 0.636-0.757 1.121-0.011 0.343 0.137 0.662 0.439 0.955 0.311 0.293 0.913 0.52 1.803 0.682l4.727 0.849c2.383 0.434 4.156 1.167 5.318 2.197 1.171 1.020 1.762 2.389 1.773 4.106-0.011 1.657-0.506 3.096-1.485 4.318-0.971 1.212-2.3 2.151-3.985 2.818-1.677 0.656-3.593 0.985-5.743 0.985-3.556 0-6.338-0.727-8.348-2.182-2.001-1.454-3.117-3.374-3.349-5.758h8.303c0.111 0.738 0.476 1.308 1.090 1.712 0.627 0.394 1.414 0.591 2.364 0.591 0.768 0 1.399-0.131 1.894-0.394 0.506-0.263 0.764-0.636 0.772-1.121-0.009-0.445-0.233-0.798-0.666-1.061-0.425-0.263-1.092-0.475-2.001-0.636l-4.119-0.727c-2.374-0.414-4.151-1.202-5.333-2.364s-1.769-2.657-1.758-4.485c-0.011-1.616 0.414-2.985 1.271-4.106 0.868-1.131 2.106-1.99 3.712-2.576 1.617-0.596 3.531-0.894 5.743-0.894 3.364 0 6.016 0.697 7.955 2.091 1.95 1.394 2.974 3.323 3.076 5.788z"></path>
<path fill="#475467" style="fill: var(--color1, #475467)" d="M248.352 25.515l0.060-9.939h1.092l5.636-7.818h9.393l-9.455 12.182h-2.364l-4.363 5.576zM240.836 31.030v-31.030h8.365v31.030h-8.365zM255.2 31.030l-5.333-9.212 5.455-5.939 9.455 15.152h-9.577z"></path>
<path fill="#475467" style="fill: var(--color1, #475467)" d="M225.321 31.454c-2.526 0-4.687-0.5-6.485-1.5-1.798-1.010-3.177-2.414-4.137-4.212-0.96-1.808-1.439-3.904-1.439-6.288s0.479-4.475 1.439-6.273c0.96-1.808 2.338-3.212 4.137-4.212 1.798-1.010 3.959-1.515 6.485-1.515 2.283 0 4.256 0.414 5.924 1.242 1.677 0.818 2.974 1.98 3.893 3.485 0.919 1.495 1.385 3.253 1.393 5.273h-7.757c-0.111-1.222-0.465-2.152-1.060-2.788-0.587-0.646-1.344-0.97-2.272-0.97-0.727 0-1.365 0.212-1.909 0.636-0.546 0.414-0.971 1.045-1.274 1.894-0.303 0.838-0.454 1.894-0.454 3.167s0.151 2.333 0.454 3.182c0.303 0.838 0.727 1.47 1.274 1.894 0.544 0.414 1.182 0.621 1.909 0.621 0.614 0 1.161-0.141 1.636-0.424 0.474-0.293 0.858-0.717 1.15-1.273 0.303-0.566 0.486-1.252 0.546-2.061h7.757c-0.030 2.051-0.499 3.838-1.408 5.364-0.909 1.515-2.197 2.687-3.863 3.515-1.658 0.828-3.637 1.242-5.939 1.242z"></path>
<path fill="#475467" style="fill: var(--color1, #475467)" d="M200.637 20.848v-13.091h8.364v23.273h-7.939v-4.424h-0.243c-0.505 1.485-1.389 2.646-2.651 3.485-1.263 0.828-2.763 1.242-4.5 1.242-1.626 0-3.051-0.374-4.273-1.121-1.212-0.748-2.157-1.778-2.833-3.091-0.667-1.313-1.005-2.818-1.015-4.515v-14.849h8.364v13.091c0.010 1.152 0.303 2.056 0.879 2.712 0.586 0.657 1.404 0.985 2.455 0.985 0.697 0 1.298-0.147 1.803-0.439 0.515-0.303 0.909-0.727 1.182-1.273 0.283-0.556 0.419-1.217 0.409-1.985z"></path>
<path fill="#475467" style="fill: var(--color1, #475467)" d="M166.193 31.030v-23.273h8.121v4.424h0.242c0.424-1.636 1.096-2.833 2.015-3.591 0.929-0.758 2.015-1.136 3.258-1.136 0.364 0 0.722 0.030 1.076 0.091 0.364 0.051 0.712 0.126 1.045 0.227v7.136c-0.414-0.141-0.924-0.247-1.53-0.318s-1.126-0.106-1.561-0.106c-0.818 0-1.556 0.187-2.212 0.561-0.646 0.364-1.156 0.879-1.53 1.545-0.374 0.657-0.561 1.429-0.561 2.318v12.121h-8.364z"></path>
<path fill="#475467" style="fill: var(--color1, #475467)" d="M137.495 6.788v-6.788h26.97v6.788h-9.333v24.243h-8.303v-24.243h-9.333z"></path>
<path fill="#101828" style="fill: var(--color2, #101828)" d="M133.35 0v31.030h-8.364v-31.030h8.364z"></path>
<path fill="#101828" style="fill: var(--color2, #101828)" d="M109.326 31.454c-2.485 0-4.626-0.475-6.424-1.424-1.788-0.96-3.167-2.333-4.136-4.121-0.96-1.798-1.439-3.949-1.439-6.455 0-2.404 0.485-4.505 1.454-6.303s2.338-3.197 4.106-4.197c1.768-1 3.854-1.5 6.258-1.5 1.757 0 3.348 0.273 4.773 0.818s2.641 1.338 3.651 2.379c1.010 1.030 1.788 2.283 2.333 3.758s0.818 3.136 0.818 4.985v1.939h-20.788v-4.606h13.091c-0.010-0.667-0.182-1.253-0.515-1.758-0.323-0.515-0.763-0.914-1.318-1.197-0.546-0.293-1.167-0.439-1.864-0.439-0.677 0-1.298 0.146-1.864 0.439-0.566 0.283-1.020 0.677-1.364 1.182-0.333 0.505-0.51 1.096-0.53 1.773v4.97c0 0.747 0.157 1.414 0.47 2s0.763 1.045 1.348 1.379c0.586 0.333 1.293 0.5 2.121 0.5 0.576 0 1.101-0.081 1.576-0.242 0.485-0.162 0.899-0.394 1.242-0.697 0.343-0.313 0.596-0.687 0.758-1.121h7.636c-0.263 1.616-0.884 3.020-1.864 4.212-0.98 1.182-2.278 2.101-3.894 2.758-1.606 0.646-3.485 0.97-5.636 0.97z"></path>
<path fill="#101828" style="fill: var(--color2, #101828)" d="M95.651 7.758l-7.818 23.273h-9.697l-7.818-23.273h8.788l3.758 15.394h0.242l3.758-15.394h8.788z"></path>
<path fill="#101828" style="fill: var(--color2, #101828)" d="M53.453 31.394c-1.485 0-2.798-0.242-3.939-0.727-1.131-0.495-2.020-1.242-2.667-2.242s-0.97-2.273-0.97-3.818c0-1.273 0.217-2.359 0.652-3.258 0.434-0.909 1.040-1.651 1.818-2.227s1.682-1.015 2.712-1.318c1.040-0.303 2.161-0.5 3.364-0.591 1.303-0.101 2.348-0.222 3.136-0.364 0.798-0.151 1.374-0.359 1.727-0.621 0.353-0.273 0.53-0.631 0.53-1.076v-0.061c0-0.606-0.232-1.071-0.697-1.394s-1.061-0.485-1.788-0.485c-0.798 0-1.449 0.177-1.955 0.53-0.495 0.343-0.793 0.874-0.894 1.591h-7.697c0.101-1.414 0.551-2.717 1.348-3.909 0.808-1.202 1.985-2.162 3.53-2.879 1.545-0.727 3.475-1.091 5.788-1.091 1.667 0 3.162 0.197 4.485 0.591 1.323 0.384 2.449 0.924 3.379 1.621 0.929 0.687 1.636 1.495 2.121 2.424 0.495 0.919 0.742 1.919 0.742 3v15.939h-7.818v-3.273h-0.182c-0.465 0.869-1.030 1.571-1.697 2.106-0.657 0.535-1.409 0.924-2.258 1.167-0.838 0.242-1.763 0.364-2.773 0.364zM56.18 26.121c0.636 0 1.232-0.131 1.788-0.394 0.566-0.263 1.025-0.642 1.379-1.136s0.53-1.096 0.53-1.803v-1.939c-0.222 0.091-0.46 0.177-0.712 0.258-0.243 0.081-0.505 0.157-0.788 0.227-0.273 0.071-0.566 0.136-0.879 0.197-0.303 0.061-0.621 0.116-0.954 0.167-0.646 0.101-1.177 0.268-1.591 0.5-0.404 0.222-0.707 0.5-0.909 0.834-0.192 0.323-0.288 0.687-0.288 1.091 0 0.647 0.227 1.142 0.682 1.485s1.035 0.515 1.742 0.515z"></path>
<path fill="#101828" style="fill: var(--color2, #101828)" d="M28.698 31.030v-23.273h8.121v4.424h0.242c0.424-1.636 1.096-2.833 2.015-3.591 0.929-0.758 2.015-1.136 3.258-1.136 0.364 0 0.722 0.030 1.076 0.091 0.364 0.051 0.712 0.126 1.045 0.227v7.136c-0.414-0.141-0.924-0.247-1.53-0.318s-1.126-0.106-1.561-0.106c-0.818 0-1.555 0.187-2.212 0.561-0.646 0.364-1.156 0.879-1.53 1.545-0.374 0.657-0.561 1.429-0.561 2.318v12.121h-8.364z"></path>
<path fill="#101828" style="fill: var(--color2, #101828)" d="M0 6.788v-6.788h26.97v6.788h-9.333v24.243h-8.303v-24.243h-9.333z"></path>
</symbol>

    <!-- Heart -->
<symbol id="icon-heart" viewBox="0 0 32 32">
<path d="M16 13.139l-1.788-3.578c-0.444-0.886-1.214-2.16-2.304-3.19-1.072-1.014-2.356-1.704-3.908-1.704-3.352 0-6 2.652-6 5.84 0 2.422 1.108 4.132 3.736 6.74 0.674 0.668 1.442 1.39 2.292 2.186 2.216 2.080 4.972 4.668 7.972 8.128 3-3.46 5.756-6.048 7.972-8.128 0.85-0.796 1.62-1.52 2.292-2.186 2.628-2.608 3.736-4.318 3.736-6.74 0-3.188-2.648-5.84-6-5.84-1.554 0-2.836 0.69-3.908 1.704-1.090 1.030-1.86 2.304-2.304 3.19l-1.788 3.578zM16.784 29.723c-0.096 0.114-0.216 0.206-0.352 0.269s-0.283 0.095-0.432 0.095-0.297-0.033-0.432-0.095c-0.135-0.063-0.255-0.155-0.352-0.269-3.202-3.804-6.1-6.524-8.486-8.762-4.13-3.878-6.73-6.316-6.73-10.454 0-4.33 3.58-7.84 8-7.84 3.2 0 5.438 2.1 6.808 4.016 0.52 0.73 0.916 1.432 1.192 1.984 0.346-0.691 0.745-1.354 1.192-1.984 1.37-1.918 3.608-4.016 6.808-4.016 4.42 0 8 3.51 8 7.84 0 4.138-2.6 6.576-6.73 10.454-2.386 2.24-5.284 4.962-8.486 8.762z"></path>
</symbol>

    <!-- Heart Filled -->
    <symbol id="icon-heart-filled" viewBox="0 0 24 24">
      <path d="M12 9.854L10.659 7.1705C10.326 6.506 9.7485 5.5505 8.931 4.778C8.127 4.0175 7.164 3.5 6 3.5C3.486 3.5 1.5 5.489 1.5 7.88C1.5 9.6965 2.331 10.979 4.302 12.935C4.8075 13.436 5.3835 13.9775 6.021 14.5745C7.683 16.1345 9.75 18.0755 12 20.6705C14.25 18.0755 16.317 16.1345 17.979 14.5745C18.6165 13.9775 19.194 13.4345 19.698 12.935C21.669 10.979 22.5 9.6965 22.5 7.88C22.5 5.489 20.514 3.5 18 3.5C16.8345 3.5 15.873 4.0175 15.069 4.778C14.2515 5.5505 13.674 6.506 13.341 7.1705L12 9.854ZM12.588 22.292C12.5158 22.3776 12.4257 22.4463 12.3242 22.4935C12.2226 22.5407 12.112 22.5651 12 22.5651C11.888 22.5651 11.7774 22.5407 11.6758 22.4935C11.5743 22.4463 11.4842 22.3776 11.412 22.292C9.0105 19.439 6.837 17.399 5.0475 15.7205C1.95 12.812 0 10.9835 0 7.88C0 4.6325 2.685 2 6 2C8.4 2 10.0785 3.575 11.106 5.012C11.496 5.5595 11.793 6.086 12 6.5C12.2597 5.982 12.5586 5.48456 12.894 5.012C13.9215 3.5735 15.6 2 18 2C21.315 2 24 4.6325 24 7.88C24 10.9835 22.05 12.812 18.9525 15.7205C17.163 17.4005 14.9895 19.442 12.588 22.292Z" fill="#E44848"/>
    </symbol>

    <!-- Star -->
    <symbol id="icon-star" viewBox="0 0 16 16">
      <path fill="#FFC531" d="M7.549 0.928c0.178-0.571 0.982-0.571 1.16 0l1.458 4.49c0.079 0.243 0.305 0.407 0.564 0.407h4.714c0.58 0 0.821 0.742 0.354 1.084l-3.814 2.77c-0.207 0.15-0.293 0.417-0.214 0.66l1.458 4.49c0.178 0.571-0.452 1.045-0.914 0.688l-3.814-2.77c-0.207-0.15-0.487-0.15-0.694 0l-3.814 2.77c-0.462 0.357-1.092-0.117-0.914-0.688l1.458-4.49c0.079-0.243-0.007-0.51-0.214-0.66l-3.814-2.77c-0.467-0.342-0.226-1.084 0.354-1.084h4.714c0.259 0 0.485-0.164 0.564-0.407l1.458-4.49z"/>
    </symbol>

    <!-- Star Empty -->
    <symbol id="icon-star-empty" viewBox="0 0 16 16">
      <path stroke="#FFC531" stroke-width="1.3" fill="none" d="M7.549 0.928c0.178-0.571 0.982-0.571 1.16 0l1.458 4.49c0.079 0.243 0.305 0.407 0.564 0.407h4.714c0.58 0 0.821 0.742 0.354 1.084l-3.814 2.77c-0.207 0.15-0.293 0.417-0.214 0.66l1.458 4.49c0.178 0.571-0.452 1.045-0.914 0.688l-3.814-2.77c-0.207-0.15-0.487-0.15-0.694 0l-3.814 2.77c-0.462 0.357-1.092-0.117-0.914-0.688l1.458-4.49c0.079-0.243-0.007-0.51-0.214-0.66l-3.814-2.77c-0.467-0.342-0.226-1.084 0.354-1.084h4.714c0.259 0 0.485-0.164 0.564-0.407l1.458-4.49z"/>
    </symbol>

    <!-- Location -->
    <symbol id="icon-location" viewBox="0 0 32 32">
      <path d="M31.634 0.226c0.115 0.094 0.207 0.212 0.27 0.346s0.096 0.28 0.096 0.428v28c-0 0.231-0.080 0.455-0.227 0.634s-0.351 0.301-0.577 0.346l-10 2c-0.129 0.026-0.263 0.026-0.392 0l-9.804-1.96-9.804 1.96c-0.145 0.029-0.295 0.025-0.438-0.010s-0.277-0.103-0.392-0.197c-0.114-0.094-0.207-0.212-0.27-0.345s-0.096-0.28-0.096-0.428v-28c0-0.231 0.080-0.455 0.227-0.634s0.351-0.301 0.577-0.346l10-2c0.129-0.026 0.263-0.026 0.392 0l9.804 1.96 9.804-1.96c0.145-0.029 0.295-0.026 0.438 0.010s0.277 0.103 0.392 0.196zM20 3.82l-8-1.6v25.96l8 1.6v-25.96zM22 29.78l8-1.6v-25.96l-8 1.6v25.96zM10 28.18v-25.96l-8 1.6v25.96l8-1.6z"></path>
    </symbol>

    <!-- Close -->
    <symbol id="icon-close" viewBox="0 0 32 32">
      <path stroke-width="3" stroke-linecap="round" stroke-linejoin="round" d="M24 8l-16 16M8 8l16 16"/>
    </symbol>

    <!-- Calendar -->
    <symbol id="icon-calendar" viewBox="0 0 20 20">
      <path fill="none" stroke="currentColor" stroke-width="1.3" d="M15.833 3.333h1.667c0.736 0 1.104 0 1.365 0.147 0.23 0.129 0.418 0.317 0.547 0.547 0.147 0.261 0.147 0.629 0.147 1.365v11.217c0 0.736 0 1.104-0.147 1.365-0.129 0.23-0.317 0.418-0.547 0.547-0.261 0.147-0.629 0.147-1.365 0.147h-15c-0.736 0-1.104 0-1.365-0.147-0.23-0.129-0.418-0.317-0.547-0.547-0.147-0.261-0.147-0.629-0.147-1.365v-11.217c0-0.736 0-1.104 0.147-1.365 0.129-0.23 0.317-0.418 0.547-0.547 0.261-0.147 0.629-0.147 1.365-0.147h1.667M13.333 1.667v3.333M6.667 1.667v3.333M1.667 8.333h16.667"/>
    </symbol>

    <!-- AC -->
    <symbol id="icon-ac" viewBox="0 0 32 32">
      <path d="M25 4c-1.326 0-2.598 0.527-3.535 1.464s-1.465 2.209-1.465 3.536c0 0.265-0.105 0.52-0.293 0.707s-0.442 0.293-0.707 0.293c-0.265 0-0.52-0.105-0.707-0.293s-0.293-0.442-0.293-0.707c0-1.384 0.41-2.738 1.18-3.889s1.862-2.048 3.142-2.578c1.279-0.53 2.687-0.668 4.044-0.398s2.605 0.937 3.584 1.916c0.979 0.979 1.646 2.226 1.916 3.584s0.131 2.765-0.398 4.044c-0.53 1.279-1.427 2.372-2.578 3.142s-2.505 1.18-3.889 1.18h-24c-0.265 0-0.52-0.105-0.707-0.293s-0.293-0.442-0.293-0.707c0-0.265 0.105-0.52 0.293-0.707s0.442-0.293 0.707-0.293h24c1.326 0 2.598-0.527 3.535-1.464s1.465-2.209 1.465-3.536-0.527-2.598-1.465-3.536c-0.938-0.938-2.209-1.464-3.535-1.464zM11 6c-0.53 0-1.039 0.211-1.414 0.586s-0.586 0.884-0.586 1.414c0 0.265-0.105 0.52-0.293 0.707s-0.442 0.293-0.707 0.293c-0.265 0-0.52-0.105-0.707-0.293s-0.293-0.442-0.293-0.707c0-0.791 0.235-1.564 0.674-2.222s1.064-1.171 1.795-1.473c0.731-0.303 1.535-0.382 2.311-0.228s1.489 0.535 2.048 1.095 0.94 1.272 1.095 2.048c0.154 0.776 0.075 1.58-0.228 2.311s-0.815 1.356-1.473 1.795-1.431 0.674-2.222 0.674h-10c-0.265 0-0.52-0.105-0.707-0.293s-0.293-0.442-0.293-0.707c0-0.265 0.105-0.52 0.293-0.707s0.442-0.293 0.707-0.293h10c0.53 0 1.039-0.211 1.414-0.586s0.586-0.884 0.586-1.414c0-0.53-0.211-1.039-0.586-1.414s-0.884-0.586-1.414-0.586zM0 19c0-0.265 0.105-0.52 0.293-0.707s0.442-0.293 0.707-0.293h20.084c1.187 0 2.347 0.352 3.333 1.011s1.756 1.596 2.21 2.693c0.454 1.096 0.573 2.303 0.341 3.467s-0.803 2.233-1.642 3.072c-0.839 0.839-1.908 1.411-3.072 1.642s-2.37 0.113-3.467-0.341-2.033-1.223-2.693-2.21c-0.659-0.987-1.011-2.147-1.011-3.333 0-0.265 0.105-0.52 0.293-0.707s0.442-0.293 0.707-0.293c0.265 0 0.52 0.105 0.707 0.293s0.293 0.442 0.293 0.707c0 0.791 0.235 1.564 0.674 2.222s1.064 1.171 1.795 1.473c0.731 0.303 1.535 0.382 2.311 0.228s1.489-0.535 2.048-1.095 0.94-1.272 1.095-2.048c0.154-0.776 0.075-1.58-0.228-2.311s-0.815-1.356-1.473-1.795-1.431-0.674-2.222-0.674h-20.084c-0.265 0-0.52-0.105-0.707-0.293s-0.293-0.442-0.293-0.707z"></path>
    </symbol>

    <!-- Bathroom -->
<symbol id="icon-bathroom" viewBox="0 0 32 32">
<path d="M8 29.5c0 0.297-0.088 0.587-0.253 0.833s-0.399 0.439-0.673 0.552-0.576 0.143-0.867 0.085c-0.291-0.058-0.558-0.201-0.768-0.41s-0.353-0.477-0.411-0.768c-0.058-0.291-0.028-0.593 0.085-0.867s0.306-0.508 0.552-0.673c0.247-0.165 0.537-0.253 0.833-0.253 0.398 0 0.779 0.158 1.061 0.439s0.439 0.663 0.439 1.061zM10.5 24c-0.297 0-0.587 0.088-0.833 0.253s-0.439 0.399-0.552 0.673c-0.114 0.274-0.143 0.576-0.085 0.867s0.201 0.558 0.411 0.768c0.21 0.21 0.477 0.353 0.768 0.41s0.592 0.028 0.867-0.085 0.508-0.306 0.673-0.552c0.165-0.247 0.253-0.537 0.253-0.833 0-0.398-0.158-0.779-0.439-1.061s-0.663-0.439-1.061-0.439zM2.5 24c-0.297 0-0.587 0.088-0.833 0.253s-0.439 0.399-0.552 0.673c-0.114 0.274-0.143 0.576-0.085 0.867s0.201 0.558 0.411 0.768c0.21 0.21 0.477 0.353 0.768 0.41s0.593 0.028 0.867-0.085c0.274-0.113 0.508-0.306 0.673-0.552s0.253-0.537 0.253-0.833c0-0.398-0.158-0.779-0.439-1.061s-0.663-0.439-1.061-0.439zM6.5 20c-0.297 0-0.587 0.088-0.833 0.253s-0.439 0.399-0.552 0.673c-0.114 0.274-0.143 0.576-0.085 0.867s0.201 0.558 0.411 0.768c0.21 0.21 0.477 0.353 0.768 0.41s0.593 0.028 0.867-0.085c0.274-0.113 0.508-0.306 0.673-0.552s0.253-0.537 0.253-0.833c0-0.398-0.158-0.779-0.439-1.061s-0.663-0.439-1.061-0.439zM32 5c0 0.265-0.105 0.52-0.293 0.707s-0.442 0.293-0.707 0.293h-3.586l-3.481 3.482-2.707 15.849c-0.061 0.362-0.22 0.701-0.461 0.978s-0.553 0.483-0.902 0.595c-0.35 0.112-0.724 0.125-1.080 0.039s-0.683-0.27-0.943-0.529l-12.25-12.25c-0.26-0.26-0.443-0.586-0.53-0.944s-0.073-0.732 0.039-1.082c0.112-0.35 0.319-0.662 0.597-0.903s0.617-0.399 0.98-0.46l15.842-2.709 3.775-3.775c0.093-0.093 0.203-0.166 0.325-0.217s0.252-0.076 0.383-0.076h4c0.265 0 0.52 0.105 0.707 0.293s0.293 0.442 0.293 0.707zM21.776 10.224l-14.776 2.526 12.25 12.25 2.526-14.776z"></path>
</symbol>

    <!-- Kitchen -->
<symbol id="icon-kitchen" viewBox="0 0 32 32">
<path d="M1 12c-0.15 0-0.297 0.034-0.432 0.098s-0.254 0.159-0.347 0.276c-0.094 0.117-0.16 0.253-0.194 0.399s-0.035 0.297-0.003 0.443l3.304 14.868c0.247 1.11 0.865 2.104 1.752 2.816s1.991 1.1 3.128 1.1h11.584c1.138-0 2.241-0.388 3.128-1.1s1.505-1.705 1.752-2.816l0.262-1.18c1.53 0.286 3.111-0.033 4.41-0.891s2.213-2.186 2.551-3.706c0.337-1.519 0.071-3.11-0.742-4.437s-2.111-2.285-3.618-2.674l0.442-1.98c0.032-0.146 0.031-0.298-0.003-0.443s-0.1-0.282-0.194-0.399c-0.094-0.117-0.212-0.211-0.347-0.276s-0.283-0.098-0.432-0.098h-26zM26 25c-0.212 0-0.423-0.017-0.632-0.050l1.734-7.796c0.925 0.268 1.722 0.86 2.246 1.669s0.738 1.778 0.604 2.732c-0.134 0.954-0.607 1.827-1.333 2.46s-1.656 0.983-2.619 0.985zM5.28 27.65l-3.034-13.65h23.508l-3.034 13.65c-0.148 0.666-0.519 1.262-1.051 1.69s-1.195 0.66-1.877 0.66h-11.584c-0.683-0-1.345-0.233-1.877-0.66s-0.903-1.023-1.051-1.69z"></path>
<path d="M8.8 1.6l-0.006 0.008-0.028 0.038c-0.146 0.2-0.282 0.407-0.408 0.62-0.107 0.171-0.202 0.349-0.282 0.534-0.052 0.12-0.068 0.184-0.074 0.206v0.008c0.023 0.177 0.085 0.346 0.182 0.496 0.15 0.266 0.356 0.544 0.616 0.89l0.020 0.024c0.236 0.316 0.52 0.694 0.74 1.086 0.224 0.4 0.44 0.91 0.44 1.49 0 0.376-0.13 0.736-0.238 0.988-0.116 0.268-0.251 0.527-0.404 0.776-0.157 0.262-0.326 0.517-0.506 0.764l-0.036 0.050-0.010 0.016-0.004 0.004c-0.159 0.212-0.396 0.353-0.658 0.391s-0.529-0.030-0.742-0.189-0.353-0.396-0.391-0.658c-0.038-0.263 0.030-0.529 0.189-0.742l0.006-0.008 0.028-0.038c0.146-0.2 0.282-0.407 0.408-0.62 0.107-0.171 0.202-0.349 0.282-0.534 0.052-0.12 0.068-0.184 0.074-0.206-0.021-0.179-0.083-0.352-0.18-0.504-0.186-0.31-0.392-0.608-0.618-0.89l-0.020-0.024c-0.27-0.345-0.517-0.708-0.74-1.086-0.272-0.451-0.424-0.964-0.44-1.49 0-0.376 0.13-0.736 0.238-0.988 0.118-0.276 0.268-0.548 0.404-0.776 0.159-0.261 0.328-0.516 0.506-0.764l0.050-0.070c0.159-0.212 0.396-0.353 0.658-0.391s0.529 0.030 0.742 0.189c0.212 0.159 0.353 0.396 0.391 0.658s-0.030 0.529-0.189 0.742zM14.8 1.6l-0.006 0.008-0.028 0.038c-0.146 0.2-0.282 0.407-0.408 0.62-0.107 0.171-0.202 0.349-0.282 0.534-0.052 0.12-0.068 0.184-0.074 0.206v0.008c0.023 0.177 0.085 0.346 0.182 0.496 0.15 0.266 0.356 0.544 0.616 0.89l0.020 0.024c0.236 0.316 0.52 0.694 0.74 1.086 0.224 0.4 0.44 0.91 0.44 1.49 0 0.376-0.13 0.736-0.238 0.988-0.116 0.268-0.251 0.527-0.404 0.776-0.157 0.262-0.326 0.517-0.506 0.764l-0.036 0.050-0.010 0.016-0.004 0.004c-0.159 0.212-0.396 0.353-0.658 0.391s-0.529-0.030-0.742-0.189-0.353-0.396-0.391-0.658c-0.038-0.263 0.030-0.529 0.189-0.742l0.006-0.008 0.028-0.038c0.146-0.2 0.282-0.407 0.408-0.62 0.107-0.171 0.202-0.349 0.282-0.534 0.052-0.12 0.068-0.184 0.074-0.206-0.021-0.179-0.083-0.352-0.18-0.504-0.186-0.31-0.392-0.608-0.618-0.89l-0.020-0.024c-0.27-0.345-0.517-0.708-0.74-1.086-0.272-0.451-0.424-0.964-0.44-1.49 0-0.376 0.13-0.736 0.238-0.988 0.118-0.276 0.268-0.548 0.404-0.776 0.159-0.261 0.328-0.516 0.506-0.764l0.050-0.070c0.159-0.212 0.396-0.353 0.658-0.391s0.529 0.030 0.742 0.189 0.353 0.396 0.391 0.658c0.038 0.263-0.030 0.529-0.189 0.742zM20.8 1.6l-0.006 0.008-0.028 0.038c-0.145 0.2-0.282 0.407-0.408 0.62-0.107 0.171-0.202 0.349-0.282 0.534-0.052 0.12-0.068 0.184-0.074 0.206v0.008c0.023 0.177 0.085 0.346 0.182 0.496 0.15 0.266 0.356 0.544 0.616 0.89l0.020 0.024c0.236 0.316 0.52 0.694 0.74 1.086 0.224 0.4 0.44 0.91 0.44 1.49 0 0.376-0.13 0.736-0.238 0.988-0.116 0.268-0.251 0.527-0.404 0.776-0.156 0.262-0.324 0.517-0.504 0.764l-0.038 0.050-0.010 0.016-0.004 0.004c-0.159 0.212-0.396 0.353-0.658 0.391s-0.529-0.030-0.742-0.189-0.353-0.396-0.391-0.658c-0.038-0.263 0.030-0.529 0.189-0.742l0.006-0.008 0.028-0.038c0.145-0.2 0.282-0.407 0.408-0.62 0.107-0.171 0.202-0.349 0.282-0.534 0.052-0.12 0.068-0.184 0.074-0.206-0.021-0.179-0.083-0.352-0.18-0.504-0.186-0.31-0.392-0.608-0.618-0.89l-0.020-0.024c-0.27-0.345-0.517-0.708-0.74-1.086-0.272-0.451-0.424-0.964-0.44-1.49 0-0.376 0.13-0.736 0.238-0.988 0.118-0.276 0.268-0.548 0.404-0.776 0.159-0.261 0.328-0.516 0.506-0.764l0.050-0.070c0.159-0.212 0.396-0.353 0.658-0.391s0.529 0.030 0.742 0.189 0.353 0.396 0.391 0.658c0.038 0.263-0.030 0.529-0.189 0.742z"></path>
</symbol>

    <!-- TV -->
<symbol id="icon-tv" viewBox="0 0 32 32">
<path d="M0 8c0 0 0-4 4-4h24c0 0 4 0 4 4v12c0 0 0 4-4 4h-8c0 1.333 0.167 2.333 0.5 3h1.5c0.265 0 0.52 0.105 0.707 0.293s0.293 0.442 0.293 0.707c0 0.265-0.105 0.52-0.293 0.707s-0.442 0.293-0.707 0.293h-12c-0.265 0-0.52-0.105-0.707-0.293s-0.293-0.442-0.293-0.707c0-0.265 0.105-0.52 0.293-0.707s0.442-0.293 0.707-0.293h1.5c0.333-0.667 0.5-1.667 0.5-3h-8c0 0-4 0-4-4v-12zM2.796 6.29c-0.22 0.153-0.395 0.361-0.508 0.604-0.168 0.353-0.266 0.735-0.288 1.126v11.98c0 0.65 0.156 1.004 0.29 1.204 0.14 0.208 0.341 0.377 0.604 0.508 0.338 0.162 0.703 0.259 1.076 0.286l0.050 0.002h23.98c0.65 0 1.004-0.156 1.204-0.29 0.22-0.153 0.395-0.361 0.508-0.604 0.162-0.338 0.259-0.703 0.286-1.076l0.002-0.050v-11.98c0-0.65-0.156-1.004-0.29-1.204-0.153-0.22-0.361-0.395-0.604-0.508-0.353-0.168-0.736-0.266-1.126-0.288h-23.98c-0.65 0-1.004 0.156-1.204 0.29z"></path>
</symbol>

    <!-- Radio -->
<symbol id="icon-radio" viewBox="0 0 32 32">
<path d="M14 5c0-0.265 0.105-0.52 0.293-0.707s0.442-0.293 0.707-0.293h14c0.265 0 0.52 0.105 0.707 0.293s0.293 0.442 0.293 0.707v2c0 0.265-0.105 0.52-0.293 0.707s-0.442 0.293-0.707 0.293h-14c-0.265 0-0.52-0.105-0.707-0.293s-0.293-0.442-0.293-0.707v-2zM0 24c0-1.591 0.632-3.117 1.757-4.243s2.651-1.757 4.243-1.757 3.117 0.632 4.243 1.757c1.125 1.125 1.757 2.651 1.757 4.243s-0.632 3.117-1.757 4.243c-1.125 1.125-2.651 1.757-4.243 1.757s-3.117-0.632-4.243-1.757c-1.125-1.125-1.757-2.651-1.757-4.243zM14 21c0-0.265 0.105-0.52 0.293-0.707s0.442-0.293 0.707-0.293h14c0.265 0 0.52 0.105 0.707 0.293s0.293 0.442 0.293 0.707v2c0 0.265-0.105 0.52-0.293 0.707s-0.442 0.293-0.707 0.293h-14c-0.265 0-0.52-0.105-0.707-0.293s-0.293-0.442-0.293-0.707v-2zM14 11c0-0.265 0.105-0.52 0.293-0.707s0.442-0.293 0.707-0.293h10c0.265 0 0.52 0.105 0.707 0.293s0.293 0.442 0.293 0.707-0.105 0.52-0.293 0.707c-0.188 0.188-0.442 0.293-0.707 0.293h-10c-0.265 0-0.52-0.105-0.707-0.293s-0.293-0.442-0.293-0.707zM14 27c0-0.265 0.105-0.52 0.293-0.707s0.442-0.293 0.707-0.293h10c0.265 0 0.52 0.105 0.707 0.293s0.293 0.442 0.293 0.707-0.105 0.52-0.293 0.707c-0.188 0.188-0.442 0.293-0.707 0.293h-10c-0.265 0-0.52-0.105-0.707-0.293s-0.293-0.442-0.293-0.707zM6 2c-0.788 0-1.568 0.155-2.296 0.457s-1.389 0.744-1.947 1.301c-0.557 0.557-0.999 1.219-1.301 1.947s-0.457 1.508-0.457 2.296c0 0.788 0.155 1.568 0.457 2.296s0.744 1.389 1.301 1.947c0.557 0.557 1.219 0.999 1.947 1.301s1.508 0.457 2.296 0.457c1.591 0 3.117-0.632 4.243-1.757s1.757-2.651 1.757-4.243c0-1.591-0.632-3.117-1.757-4.243s-2.651-1.757-4.243-1.757zM6 11c-0.796 0-1.559-0.316-2.121-0.879s-0.879-1.326-0.879-2.121c0-0.796 0.316-1.559 0.879-2.121s1.326-0.879 2.121-0.879c0.796 0 1.559 0.316 2.121 0.879s0.879 1.326 0.879 2.121c0 0.796-0.316 1.559-0.879 2.121s-1.326 0.879-2.121 0.879z"></path>
</symbol>

    <!-- Refrigerator -->
<symbol id="icon-refrigerator" viewBox="0 0 32 32">
<path d="M23.667 9.333c0-0.265-0.105-0.52-0.293-0.707s-0.442-0.293-0.707-0.293c-0.265 0-0.52 0.105-0.707 0.293s-0.293 0.442-0.293 0.707v2.667c0 0.265 0.105 0.52 0.293 0.707s0.442 0.293 0.707 0.293c0.265 0 0.52-0.105 0.707-0.293s0.293-0.442 0.293-0.707v-2.667zM23.667 18.667c0-0.265-0.105-0.52-0.293-0.707s-0.442-0.293-0.707-0.293c-0.265 0-0.52 0.105-0.707 0.293s-0.293 0.442-0.293 0.707v2.667c0 0.265 0.105 0.52 0.293 0.707s0.442 0.293 0.707 0.293c0.265 0 0.52-0.105 0.707-0.293s0.293-0.442 0.293-0.707v-2.667z"></path>
<path d="M16.075 1.667h-0.149c-2.451 0-4.392 0-5.911 0.204-1.563 0.211-2.828 0.653-3.827 1.651-0.997 0.999-1.44 2.264-1.651 3.827-0.204 1.52-0.204 3.46-0.204 5.911v4.149c0 2.451 0 4.392 0.204 5.911 0.211 1.563 0.653 2.828 1.651 3.827 0.613 0.612 1.325 1.015 2.145 1.284v0.904c0 0.552 0.448 1 1 1h1.333c0.265 0 0.52-0.105 0.707-0.293s0.293-0.442 0.293-0.707v-0.395c1.209 0.061 2.62 0.061 4.259 0.061h0.149c1.64 0 3.049 0 4.259-0.061v0.395c0 0.552 0.448 1 1 1h1.333c0.265 0 0.52-0.105 0.707-0.293s0.293-0.442 0.293-0.707v-0.904c0.82-0.269 1.533-0.672 2.145-1.284 0.997-0.999 1.44-2.264 1.651-3.827 0.204-1.52 0.204-3.46 0.204-5.911v-4.148c0-2.451 0-4.392-0.204-5.911-0.211-1.563-0.653-2.828-1.651-3.827-0.999-0.997-2.264-1.44-3.827-1.651-1.52-0.204-3.46-0.204-5.911-0.204zM7.603 4.936c0.564-0.564 1.337-0.903 2.679-1.083 1.371-0.184 3.176-0.187 5.719-0.187s4.349 0.003 5.72 0.187c1.34 0.18 2.113 0.519 2.677 1.083s0.903 1.337 1.083 2.679c0.184 1.371 0.187 3.176 0.187 5.719v1h-19.333v-1c0-2.543 0.003-4.348 0.187-5.72 0.18-1.34 0.519-2.113 1.083-2.677zM6.333 16.333h19.333v1c0 2.543-0.003 4.349-0.187 5.72-0.18 1.34-0.519 2.113-1.083 2.677s-1.337 0.903-2.679 1.083c-1.371 0.184-3.176 0.187-5.719 0.187s-4.348-0.003-5.72-0.187c-1.34-0.18-2.113-0.519-2.677-1.083s-0.903-1.337-1.083-2.679c-0.184-1.369-0.187-3.176-0.187-5.719v-1z"></path>
</symbol>

    <!-- Microwave -->
<symbol id="icon-microwave" viewBox="0 0 36 32">
<path d="M32 4c1.106 0 2 0.894 2 2v18c0 1.106-0.894 2-2 2h-28c-1.106 0-2-0.894-2-2v-18c0-1.106 0.894-2 2-2h28zM30 28v1c0 0.55 0.45 1 1 1s1-0.45 1-1v-1c2.206 0 4-1.794 4-4v-18c0-2.206-1.794-4-4-4h-28c-2.206 0-4 1.794-4 4v18c0 2.206 1.794 4 4 4v1c0 0.55 0.45 1 1 1s1-0.45 1-1v-1h24zM29 8v14c0 0.55 0.45 1 1 1s1-0.45 1-1v-14c0-0.55-0.45-1-1-1s-1 0.45-1 1zM8 20v-10h16v10h-16zM6 9.5v11c0 0.831 0.669 1.5 1.5 1.5h17c0.831 0 1.5-0.669 1.5-1.5v-11c0-0.831-0.669-1.5-1.5-1.5h-17c-0.831 0-1.5 0.669-1.5 1.5z"></path>
</symbol>

    <!-- Gas -->
<symbol id="icon-gas" viewBox="0 0 28 32">
<path d="M6 2c-2.206 0-4 1.794-4 4v4h24v-4c0-2.206-1.794-4-4-4h-16zM2 12v16c0 1.106 0.894 2 2 2h20c1.106 0 2-0.894 2-2v-16h-24zM0 6c0-3.313 2.688-6 6-6h16c3.313 0 6 2.688 6 6v22c0 2.206-1.794 4-4 4h-20c-2.206 0-4-1.794-4-4v-22zM6.5 5c0.828 0 1.5 0.672 1.5 1.5s-0.672 1.5-1.5 1.5v0c-0.828 0-1.5-0.672-1.5-1.5s0.672-1.5 1.5-1.5v0zM10 6.5c0-0.828 0.672-1.5 1.5-1.5s1.5 0.672 1.5 1.5v0c0 0.828-0.672 1.5-1.5 1.5s-1.5-0.672-1.5-1.5v0zM16.5 5c0.828 0 1.5 0.672 1.5 1.5s-0.672 1.5-1.5 1.5v0c-0.828 0-1.5-0.672-1.5-1.5s0.672-1.5 1.5-1.5v0zM20 6.5c0-0.828 0.672-1.5 1.5-1.5s1.5 0.672 1.5 1.5v0c0 0.828-0.672 1.5-1.5 1.5s-1.5-0.672-1.5-1.5v0zM6 16v10h16v-10h-16zM4 16c0-1.106 0.894-2 2-2h16c1.106 0 2 0.894 2 2v10c0 1.106-0.894 2-2 2h-16c-1.106 0-2-0.894-2-2v-10zM8 19c0-0.55 0.45-1 1-1h10c0.55 0 1 0.45 1 1s-0.45 1-1 1h-10c-0.55 0-1-0.45-1-1z"></path>
</symbol>

    <!-- Water -->
<symbol id="icon-water" viewBox="0 0 24 32">
<path d="M12 30c-5.525 0-10-4.475-10-10 0-1.012 0.381-2.45 1.144-4.219 0.744-1.725 1.781-3.594 2.913-5.425 2.244-3.625 4.775-6.931 5.906-8.356h0.081c1.131 1.431 3.662 4.731 5.906 8.356 1.131 1.825 2.163 3.694 2.913 5.425 0.756 1.769 1.137 3.206 1.137 4.219 0 5.525-4.475 10-10 10zM0 20c0 6.625 5.375 12 12 12s12-5.375 12-12c0-5.7-8.137-16.394-10.412-19.269-0.375-0.469-0.931-0.731-1.531-0.731h-0.113c-0.6 0-1.156 0.263-1.531 0.731-2.275 2.875-10.412 13.569-10.412 19.269zM7 20c0-0.55-0.45-1-1-1s-1 0.45-1 1c0 3.869 3.131 7 7 7 0.55 0 1-0.45 1-1s-0.45-1-1-1c-2.762 0-5-2.238-5-5z"></path>
</symbol>

    <!-- Transmission -->
<symbol id="icon-transmission" viewBox="0 0 32 32">
<path d="M12 7c0-0.796 0.316-1.559 0.879-2.121s1.326-0.879 2.121-0.879h2c0.796 0 1.559 0.316 2.121 0.879s0.879 1.326 0.879 2.121v2c0 0.796-0.316 1.559-0.879 2.121s-1.326 0.879-2.121 0.879v2h11c0.265 0 0.52 0.105 0.707 0.293s0.293 0.442 0.293 0.707v2c0 0.265-0.105 0.52-0.293 0.707s-0.442 0.293-0.707 0.293c-0.265 0-0.52-0.105-0.707-0.293s-0.293-0.442-0.293-0.707v-1h-10v1c0 0.265-0.105 0.52-0.293 0.707s-0.442 0.293-0.707 0.293c-0.265 0-0.52-0.105-0.707-0.293s-0.293-0.442-0.293-0.707v-1h-10v1c0 0.265-0.105 0.52-0.293 0.707s-0.442 0.293-0.707 0.293c-0.265 0-0.52-0.105-0.707-0.293s-0.293-0.442-0.293-0.707v-2c0-0.265 0.105-0.52 0.293-0.707s0.442-0.293 0.707-0.293h11v-2c-0.796 0-1.559-0.316-2.121-0.879s-0.879-1.326-0.879-2.121v-2zM17 10c0.265 0 0.52-0.105 0.707-0.293s0.293-0.442 0.293-0.707v-2c0-0.265-0.105-0.52-0.293-0.707s-0.442-0.293-0.707-0.293h-2c-0.265 0-0.52 0.105-0.707 0.293s-0.293 0.442-0.293 0.707v2c0 0.265 0.105 0.52 0.293 0.707s0.442 0.293 0.707 0.293h2zM0 23c0-0.796 0.316-1.559 0.879-2.121s1.326-0.879 2.121-0.879h2c0.796 0 1.559 0.316 2.121 0.879s0.879 1.326 0.879 2.121v2c0 0.796-0.316 1.559-0.879 2.121s-1.326 0.879-2.121 0.879h-2c-0.796 0-1.559-0.316-2.121-0.879s-0.879-1.326-0.879-2.121v-2zM3 22c-0.265 0-0.52 0.105-0.707 0.293s-0.293 0.442-0.293 0.707v2c0 0.265 0.105 0.52 0.293 0.707s0.442 0.293 0.707 0.293h2c0.265 0 0.52-0.105 0.707-0.293s0.293-0.442 0.293-0.707v-2c0-0.265-0.105-0.52-0.293-0.707s-0.442-0.293-0.707-0.293h-2zM12 23c0-0.796 0.316-1.559 0.879-2.121s1.326-0.879 2.121-0.879h2c0.796 0 1.559 0.316 2.121 0.879s0.879 1.326 0.879 2.121v2c0 0.796-0.316 1.559-0.879 2.121s-1.326 0.879-2.121 0.879h-2c-0.796 0-1.559-0.316-2.121-0.879s-0.879-1.326-0.879-2.121v-2zM15 22c-0.265 0-0.52 0.105-0.707 0.293s-0.293 0.442-0.293 0.707v2c0 0.265 0.105 0.52 0.293 0.707s0.442 0.293 0.707 0.293h2c0.265 0 0.52-0.105 0.707-0.293s0.293-0.442 0.293-0.707v-2c0-0.265-0.105-0.52-0.293-0.707s-0.442-0.293-0.707-0.293h-2zM24 23c0-0.796 0.316-1.559 0.879-2.121s1.326-0.879 2.121-0.879h2c0.796 0 1.559 0.316 2.121 0.879s0.879 1.326 0.879 2.121v2c0 0.796-0.316 1.559-0.879 2.121s-1.326 0.879-2.121 0.879h-2c-0.796 0-1.559-0.316-2.121-0.879s-0.879-1.326-0.879-2.121v-2zM27 22c-0.265 0-0.52 0.105-0.707 0.293s-0.293 0.442-0.293 0.707v2c0 0.265 0.105 0.52 0.293 0.707s0.442 0.293 0.707 0.293h2c0.265 0 0.52-0.105 0.707-0.293s0.293-0.442 0.293-0.707v-2c0-0.265-0.105-0.52-0.293-0.707s-0.442-0.293-0.707-0.293h-2z"></path>
</symbol>

    <!-- Engine -->
<symbol id="icon-engine" viewBox="0 0 32 32">
<path d="M6 5c0-0.265 0.105-0.52 0.293-0.707s0.442-0.293 0.707-0.293h10c0.265 0 0.52 0.105 0.707 0.293s0.293 0.442 0.293 0.707v10c0 0.265-0.105 0.52-0.293 0.707s-0.442 0.293-0.707 0.293h-10c-0.265 0-0.52-0.105-0.707-0.293s-0.293-0.442-0.293-0.707v-10z"></path>
<path d="M2 4c0-1.061 0.421-2.078 1.172-2.828s1.768-1.172 2.828-1.172h12c1.061 0 2.078 0.421 2.828 1.172s1.172 1.768 1.172 2.828v16c1.061 0 2.078 0.421 2.828 1.172s1.172 1.768 1.172 2.828v1c0 0.265 0.105 0.52 0.293 0.707s0.442 0.293 0.707 0.293 0.52-0.105 0.707-0.293c0.188-0.188 0.293-0.442 0.293-0.707v-9h-1c-0.265 0-0.52-0.105-0.707-0.293s-0.293-0.442-0.293-0.707v-6.25c0-0.265 0.105-0.52 0.293-0.707s0.442-0.293 0.707-0.293h2.99c-0.022-0.952-0.106-1.788-0.402-2.444-0.158-0.381-0.435-0.702-0.788-0.916-0.368-0.22-0.928-0.39-1.8-0.39-0.265 0-0.52-0.105-0.707-0.293s-0.293-0.442-0.293-0.707 0.105-0.52 0.293-0.707c0.188-0.188 0.442-0.293 0.707-0.293 1.128-0.003 2.069 0.221 2.824 0.672 0.766 0.456 1.268 1.102 1.588 1.814 0.59 1.31 0.588 2.93 0.588 4.162v6.35c0 0.132-0.025 0.262-0.076 0.383s-0.124 0.232-0.217 0.325c-0.093 0.093-0.203 0.167-0.325 0.217s-0.252 0.076-0.383 0.076h-1v9c0 0.796-0.316 1.559-0.879 2.121s-1.326 0.879-2.121 0.879-1.559-0.316-2.121-0.879c-0.563-0.563-0.879-1.326-0.879-2.121v-1c0-0.53-0.211-1.039-0.586-1.414s-0.884-0.586-1.414-0.586v8h1c0.265 0 0.52 0.105 0.707 0.293s0.293 0.442 0.293 0.707-0.105 0.52-0.293 0.707c-0.188 0.188-0.442 0.293-0.707 0.293h-22c-0.265 0-0.52-0.105-0.707-0.293s-0.293-0.442-0.293-0.707 0.105-0.52 0.293-0.707c0.188-0.188 0.442-0.293 0.707-0.293h1v-26zM20 4c0-0.53-0.211-1.039-0.586-1.414s-0.884-0.586-1.414-0.586h-12c-0.53 0-1.039 0.211-1.414 0.586s-0.586 0.884-0.586 1.414v26h16v-26z"></path>
</symbol>

    <!-- Van -->
<symbol id="icon-van" viewBox="0 0 32 32">
<path d="M12 2h-10v28h10v-28zM30 2h-10v10h10v-10zM30 20v10h-10v-10h10zM0 2c0-0.53 0.211-1.039 0.586-1.414s0.884-0.586 1.414-0.586h10c0.53 0 1.039 0.211 1.414 0.586s0.586 0.884 0.586 1.414v28c0 0.53-0.211 1.039-0.586 1.414s-0.884 0.586-1.414 0.586h-10c-0.53 0-1.039-0.211-1.414-0.586s-0.586-0.884-0.586-1.414v-28zM18 2c0-0.53 0.211-1.039 0.586-1.414s0.884-0.586 1.414-0.586h10c0.53 0 1.039 0.211 1.414 0.586s0.586 0.884 0.586 1.414v10c0 0.53-0.211 1.039-0.586 1.414s-0.884 0.586-1.414 0.586h-10c-0.53 0-1.039-0.211-1.414-0.586s-0.586-0.884-0.586-1.414v-10zM20 18c-0.53 0-1.039 0.211-1.414 0.586s-0.586 0.884-0.586 1.414v10c0 0.53 0.211 1.039 0.586 1.414s0.884 0.586 1.414 0.586h10c0.53 0 1.039-0.211 1.414-0.586s0.586-0.884 0.586-1.414v-10c0-0.53-0.211-1.039-0.586-1.414s-0.884-0.586-1.414-0.586h-10z"></path>
</symbol>

    <!-- Fully Integrated -->
<symbol id="icon-fully-integrated" viewBox="0 0 32 32">
<path d="M2 5c0-0.796 0.316-1.559 0.879-2.121s1.326-0.879 2.121-0.879h6c0.796 0 1.559 0.316 2.121 0.879s0.879 1.326 0.879 2.121v6c0 0.796-0.316 1.559-0.879 2.121s-1.326 0.879-2.121 0.879h-6c-0.796 0-1.559-0.316-2.121-0.879s-0.879-1.326-0.879-2.121v-6zM5 4c-0.265 0-0.52 0.105-0.707 0.293s-0.293 0.442-0.293 0.707v6c0 0.265 0.105 0.52 0.293 0.707s0.442 0.293 0.707 0.293h6c0.265 0 0.52-0.105 0.707-0.293s0.293-0.442 0.293-0.707v-6c0-0.265-0.105-0.52-0.293-0.707s-0.442-0.293-0.707-0.293h-6zM18 5c0-0.796 0.316-1.559 0.879-2.121s1.326-0.879 2.121-0.879h6c0.796 0 1.559 0.316 2.121 0.879s0.879 1.326 0.879 2.121v6c0 0.796-0.316 1.559-0.879 2.121s-1.326 0.879-2.121 0.879h-6c-0.796 0-1.559-0.316-2.121-0.879s-0.879-1.326-0.879-2.121v-6zM21 4c-0.265 0-0.52 0.105-0.707 0.293s-0.293 0.442-0.293 0.707v6c0 0.265 0.105 0.52 0.293 0.707s0.442 0.293 0.707 0.293h6c0.265 0 0.52-0.105 0.707-0.293s0.293-0.442 0.293-0.707v-6c0-0.265-0.105-0.52-0.293-0.707s-0.442-0.293-0.707-0.293h-6zM2 21c0-0.796 0.316-1.559 0.879-2.121s1.326-0.879 2.121-0.879h6c0.796 0 1.559 0.316 2.121 0.879s0.879 1.326 0.879 2.121v6c0 0.796-0.316 1.559-0.879 2.121s-1.326 0.879-2.121 0.879h-6c-0.796 0-1.559-0.316-2.121-0.879s-0.879-1.326-0.879-2.121v-6zM5 20c-0.265 0-0.52 0.105-0.707 0.293s-0.293 0.442-0.293 0.707v6c0 0.265 0.105 0.52 0.293 0.707s0.442 0.293 0.707 0.293h6c0.265 0 0.52-0.105 0.707-0.293s0.293-0.442 0.293-0.707v-6c0-0.265-0.105-0.52-0.293-0.707s-0.442-0.293-0.707-0.293h-6zM18 21c0-0.796 0.316-1.559 0.879-2.121s1.326-0.879 2.121-0.879h6c0.796 0 1.559 0.316 2.121 0.879s0.879 1.326 0.879 2.121v6c0 0.796-0.316 1.559-0.879 2.121s-1.326 0.879-2.121 0.879h-6c-0.796 0-1.559-0.316-2.121-0.879s-0.879-1.326-0.879-2.121v-6zM21 20c-0.265 0-0.52 0.105-0.707 0.293s-0.293 0.442-0.293 0.707v6c0 0.265 0.105 0.52 0.293 0.707s0.442 0.293 0.707 0.293h6c0.265 0 0.52-0.105 0.707-0.293s0.293-0.442 0.293-0.707v-6c0-0.265-0.105-0.52-0.293-0.707s-0.442-0.293-0.707-0.293h-6z"></path>
</symbol>

    <!-- Alcove -->
<symbol id="icon-alcove" viewBox="0 0 32 32">
<path d="M8 4v4h-4v-4h4zM10 28v-4c0-0.53-0.211-1.039-0.586-1.414s-0.884-0.586-1.414-0.586h-4c-0.53 0-1.039 0.211-1.414 0.586s-0.586 0.884-0.586 1.414v4c0 0.53 0.211 1.039 0.586 1.414s0.884 0.586 1.414 0.586h4c0.53 0 1.039-0.211 1.414-0.586s0.586-0.884 0.586-1.414zM10 18v-4c0-0.53-0.211-1.039-0.586-1.414s-0.884-0.586-1.414-0.586h-4c-0.53 0-1.039 0.211-1.414 0.586s-0.586 0.884-0.586 1.414v4c0 0.53 0.211 1.039 0.586 1.414s0.884 0.586 1.414 0.586h4c0.53 0 1.039-0.211 1.414-0.586s0.586-0.884 0.586-1.414zM10 8v-4c0-0.53-0.211-1.039-0.586-1.414s-0.884-0.586-1.414-0.586h-4c-0.53 0-1.039 0.211-1.414 0.586s-0.586 0.884-0.586 1.414v4c0 0.53 0.211 1.039 0.586 1.414s0.884 0.586 1.414 0.586h4c0.53 0 1.039-0.211 1.414-0.586s0.586-0.884 0.586-1.414zM20 28v-4c0-0.53-0.211-1.039-0.586-1.414s-0.884-0.586-1.414-0.586h-4c-0.53 0-1.039 0.211-1.414 0.586s-0.586 0.884-0.586 1.414v4c0 0.53 0.211 1.039 0.586 1.414s0.884 0.586 1.414 0.586h4c0.53 0 1.039-0.211 1.414-0.586s0.586-0.884 0.586-1.414zM20 18v-4c0-0.53-0.211-1.039-0.586-1.414s-0.884-0.586-1.414-0.586h-4c-0.53 0-1.039 0.211-1.414 0.586s-0.586 0.884-0.586 1.414v4c0 0.53 0.211 1.039 0.586 1.414s0.884 0.586 1.414 0.586h4c0.53 0 1.039-0.211 1.414-0.586s0.586-0.884 0.586-1.414zM20 8v-4c0-0.53-0.211-1.039-0.586-1.414s-0.884-0.586-1.414-0.586h-4c-0.53 0-1.039 0.211-1.414 0.586s-0.586 0.884-0.586 1.414v4c0 0.53 0.211 1.039 0.586 1.414s0.884 0.586 1.414 0.586h4c0.53 0 1.039-0.211 1.414-0.586s0.586-0.884 0.586-1.414zM18 4v4h-4v-4h4zM28 4v4h-4v-4h4zM8 14v4h-4v-4h4zM18 14v4h-4v-4h4zM28 14h-4v4h4v-4zM8 24v4h-4v-4h4zM18 24v4h-4v-4h4zM28 24v4h-4v-4h4zM24 2c-0.53 0-1.039 0.211-1.414 0.586s-0.586 0.884-0.586 1.414v4c0 0.53 0.211 1.039 0.586 1.414s0.884 0.586 1.414 0.586h4c0.53 0 1.039-0.211 1.414-0.586s0.586-0.884 0.586-1.414v-4c0-0.53-0.211-1.039-0.586-1.414s-0.884-0.586-1.414-0.586h-4zM22 14c0-0.53 0.211-1.039 0.586-1.414s0.884-0.586 1.414-0.586h4c0.53 0 1.039 0.211 1.414 0.586s0.586 0.884 0.586 1.414v4c0 0.53-0.211 1.039-0.586 1.414s-0.884 0.586-1.414 0.586h-4c-0.53 0-1.039-0.211-1.414-0.586s-0.586-0.884-0.586-1.414v-4zM24 22c-0.53 0-1.039 0.211-1.414 0.586s-0.586 0.884-0.586 1.414v4c0 0.53 0.211 1.039 0.586 1.414s0.884 0.586 1.414 0.586h4c0.53 0 1.039-0.211 1.414-0.586s0.586-0.884 0.586-1.414v-4c0-0.53-0.211-1.039-0.586-1.414s-0.884-0.586-1.414-0.586h-4z"></path>
</symbol>

    <!-- Filter -->
    <symbol id="icon-filter" viewBox="0 0 20 20">
      <path fill="none" stroke="currentColor" stroke-width="1.5" d="M8.125 15.625l-4.375-4.375v-7.5h12.5v7.5l-4.375 4.375v4.375l-3.75-1.875v-2.5z"/>
    </symbol>

    <!-- Users -->
    <symbol id="icon-users" viewBox="0 0 20 20">
      <path fill="none" stroke="currentColor" stroke-width="1.5" d="M14.167 17.5v-1.667c0-1.841-1.492-3.333-3.333-3.333h-5.833c-1.841 0-3.333 1.492-3.333 3.333v1.667M10.833 5.833c0 1.841-1.492 3.333-3.333 3.333s-3.333-1.492-3.333-3.333c0-1.841 1.492-3.333 3.333-3.333s3.333 1.492 3.333 3.333zM18.333 17.5v-1.667c0-1.473-0.953-2.722-2.275-3.166M13.558 2.608c1.035 0.537 1.742 1.623 1.742 2.867s-0.707 2.33-1.742 2.867"/>
    </symbol>

    <!-- Checkbox -->
    <symbol id="icon-checkbox" viewBox="0 0 16 16">
      <rect width="16" height="16" rx="2" fill="#E44848"/>
      <path fill="white" d="M13.354 4.646c0.195 0.195 0.195 0.512 0 0.707l-6 6c-0.195 0.195-0.512 0.195-0.707 0l-3-3c-0.195-0.195-0.195-0.512 0-0.707s0.512-0.195 0.707 0l2.646 2.647 5.646-5.647c0.195-0.195 0.512-0.195 0.707 0z"/>
    </symbol>

    <!-- Arrow Down -->
    <symbol id="icon-arrow-down" viewBox="0 0 20 20">
      <path fill="none" stroke="currentColor" stroke-width="2" stroke-linecap="round" stroke-linejoin="round" d="M5 7.5l5 5 5-5"/>
    </symbol>

    <!-- Search -->
    <symbol id="icon-search" viewBox="0 0 20 20">
      <path fill="none" stroke="currentColor" stroke-width="1.5" stroke-linecap="round" stroke-linejoin="round" d="M9.167 15.833c3.682 0 6.667-2.985 6.667-6.667s-2.985-6.667-6.667-6.667c-3.682 0-6.667 2.985-6.667 6.667s2.985 6.667 6.667 6.667zM17.5 17.5l-3.625-3.625"/>
    </symbol>
  </defs>
</svg>